<?xml version="1.0" standalone="no"?>
<!DOCTYPE svg PUBLIC "-//W3C//DTD SVG 20010904//EN"
 "http://www.w3.org/TR/2001/REC-SVG-20010904/DTD/svg10.dtd">
<svg version="1.0" xmlns="http://www.w3.org/2000/svg"
 width="1280.000000pt" height="1118.000000pt" viewBox="0 0 1280.000000 1118.000000"
 preserveAspectRatio="xMidYMid meet">
<metadata>
Created by potrace 1.15, written by Peter Selinger 2001-2017
</metadata>
<g transform="translate(0.000000,1118.000000) scale(0.100000,-0.100000)"
fill="#3f51b5" stroke="none">
<path d="M2403 11164 c-42 -21 -77 -91 -68 -134 9 -42 49 -87 90 -100 31 -10
35 -16 35 -46 0 -20 -9 -47 -21 -64 -21 -27 -21 -30 -5 -54 22 -35 20 -82 -5
-123 l-22 -35 23 -30 22 -29 -28 -40 c-25 -36 -26 -42 -15 -77 11 -32 8 -53
-19 -165 -38 -159 -66 -322 -86 -496 l-14 -133 -50 -56 c-56 -63 -62 -87 -25
-104 23 -10 25 -16 25 -82 l0 -71 -50 -40 c-84 -66 -170 -178 -170 -221 0 -29
40 -63 91 -78 l44 -13 3 -222 2 -221 -70 0 -70 0 0 -79 c0 -71 -2 -80 -20 -86
-30 -9 -79 -53 -95 -86 -40 -77 12 -181 117 -235 56 -28 80 -60 108 -144 l22
-65 -6 -595 c-4 -327 -11 -946 -16 -1375 -5 -429 -10 -866 -10 -972 0 -191 0
-192 -22 -195 -20 -3 -24 -10 -28 -58 l-5 -55 -50 -5 c-65 -7 -67 -21 -17
-110 22 -38 43 -77 46 -88 6 -17 -1 -361 -34 -1662 -5 -212 -12 -531 -15 -710
-3 -179 -8 -340 -11 -357 l-5 -33 -109 0 -110 0 0 456 0 457 -37 34 -36 35 18
33 c11 21 15 41 10 52 -4 10 -8 59 -10 108 -1 50 -7 107 -14 127 -31 96 -122
180 -246 228 -74 28 -95 50 -96 104 -1 24 -3 31 -6 16 -14 -92 -10 -87 -66
-105 -216 -70 -309 -184 -309 -380 0 -49 -5 -97 -11 -106 -9 -14 -7 -22 4 -36
29 -33 29 -40 -6 -76 l-35 -36 0 -1066 0 -1065 -44 0 -44 0 -6 63 c-3 34 -7
265 -10 514 -4 403 -3 453 11 465 27 22 53 90 53 140 l0 47 -38 3 -37 3 -9
349 -8 348 35 72 c48 94 67 180 67 299 0 78 -3 97 -14 97 -9 0 -16 -13 -19
-32 l-4 -33 -1 33 c-2 24 -7 32 -21 32 -15 0 -21 -8 -24 -32 l-4 -33 -1 33
c-2 25 -6 32 -22 32 -20 0 -20 7 -20 279 l0 279 35 57 c42 71 67 177 63 270
l-3 70 -58 3 -57 3 0 122 c1 170 14 262 45 306 46 68 55 103 55 226 0 107 -1
115 -19 115 -17 0 -20 -8 -23 -48 -4 -62 -22 -56 -26 8 -3 46 -5 51 -25 48
-19 -3 -22 -10 -25 -55 -4 -67 -22 -69 -22 -3 0 45 -2 50 -26 56 -26 7 -26 8
-22 85 3 69 6 81 32 107 l28 30 -22 12 -22 12 33 34 c60 62 42 135 -50 198
-27 18 -40 33 -37 43 3 8 -1 31 -10 51 -9 20 -16 52 -15 71 1 18 -4 39 -10 47
-9 12 -8 19 10 37 26 29 26 47 1 98 -18 34 -20 50 -14 114 4 50 2 90 -6 120
-12 42 -11 47 6 61 19 15 19 16 0 10 -29 -10 -66 20 -66 52 0 16 6 34 13 42 6
8 2 6 -10 -4 -31 -26 -29 -59 6 -95 28 -29 29 -31 15 -68 -16 -46 -17 -86 -3
-136 9 -33 7 -45 -15 -92 -31 -65 -31 -63 -4 -92 19 -20 20 -26 8 -47 -7 -14
-10 -36 -6 -50 4 -16 0 -38 -9 -56 -8 -16 -15 -42 -15 -57 0 -22 -9 -33 -41
-51 -81 -47 -103 -134 -49 -195 25 -29 28 -36 16 -46 -12 -10 -11 -18 10 -48
20 -30 24 -48 24 -109 0 -68 -2 -73 -23 -76 -19 -3 -22 -10 -25 -55 -4 -67
-22 -69 -22 -3 0 47 -2 50 -25 50 -23 0 -25 -4 -25 -44 0 -64 -18 -67 -22 -4
-3 45 -6 53 -23 53 -19 0 -20 -7 -20 -120 0 -127 8 -163 52 -222 33 -45 43
-112 43 -284 l0 -149 -54 0 -54 0 -6 -44 c-13 -87 13 -213 64 -302 l29 -53 1
-277 c1 -260 0 -279 -17 -285 -10 -3 -21 -19 -24 -35 l-7 -29 -1 33 c-1 43
-31 45 -31 2 0 -16 -4 -30 -10 -30 -5 0 -10 14 -10 31 0 20 -4 29 -13 27 -19
-7 -20 -141 -2 -233 9 -44 33 -116 54 -160 l38 -80 -8 -295 c-4 -162 -8 -319
-8 -347 l-1 -53 -40 0 c-38 0 -40 -1 -40 -32 0 -50 19 -109 46 -145 23 -30 24
-39 24 -181 0 -82 -3 -311 -7 -510 l-6 -362 -139 0 -138 0 0 -200 0 -200 6400
0 6400 0 0 200 0 200 -60 0 -60 0 -1 168 c0 92 -4 421 -8 731 l-8 563 24 24
c38 38 62 105 70 188 l6 76 -57 0 -56 0 0 48 c0 26 -5 246 -11 489 l-12 442
30 48 c78 129 113 268 113 453 0 123 -1 130 -20 130 -17 0 -20 -7 -20 -45 0
-25 -4 -45 -10 -45 -5 0 -10 20 -10 45 0 41 -2 45 -24 45 -22 0 -25 -5 -29
-48 l-3 -47 -2 48 c-2 45 -3 47 -32 47 l-30 0 0 390 0 389 40 62 c55 85 90
200 97 320 3 53 3 112 -1 132 l-7 37 -74 0 -75 0 0 208 c0 255 9 320 54 387
71 105 71 104 74 298 l4 177 -31 0 -31 0 0 -65 c0 -51 -3 -65 -15 -65 -12 0
-15 14 -15 65 l0 65 -35 0 -35 0 0 -70 c0 -56 -3 -70 -15 -70 -12 0 -15 14
-15 69 l0 70 -32 3 -33 3 -3 90 c-3 103 15 166 55 192 l25 17 -26 23 -27 22
40 40 c89 89 49 225 -86 289 -29 14 -33 21 -33 54 0 21 -9 57 -20 79 -16 31
-19 50 -14 87 5 37 2 51 -10 61 -22 18 -20 34 5 57 43 39 43 51 5 134 l-36 77
16 70 c18 72 15 98 -21 209 -5 16 0 28 19 46 l26 24 -39 -4 c-32 -3 -42 1 -60
23 -28 36 -27 70 4 100 13 14 20 25 14 25 -24 0 -59 -50 -59 -85 0 -35 35 -85
59 -85 17 0 17 -34 -1 -85 -21 -60 -22 -108 -6 -187 12 -57 11 -60 -20 -123
-18 -36 -32 -74 -32 -85 0 -11 14 -35 31 -54 l30 -35 -21 -29 c-18 -24 -19
-33 -10 -57 9 -24 7 -38 -15 -87 -18 -39 -24 -68 -20 -86 5 -23 1 -29 -27 -41
-41 -18 -105 -77 -124 -112 -18 -36 -18 -102 1 -138 8 -16 28 -40 45 -54 l30
-26 -28 -20 -27 -20 32 -33 c39 -40 53 -96 48 -198 l-3 -75 -30 -3 c-31 -3
-31 -4 -34 -69 -2 -42 -8 -68 -15 -71 -10 -3 -13 15 -13 67 l0 71 -35 0 -35 0
0 -65 c0 -51 -3 -65 -15 -65 -12 0 -15 14 -15 65 l0 65 -30 0 -30 0 -2 -107
c-5 -227 4 -271 73 -368 45 -63 58 -147 58 -392 l1 -202 -77 -3 -78 -3 0 -130
c0 -168 23 -254 100 -369 l35 -53 -2 -384 -3 -384 -27 -3 c-26 -3 -28 -7 -28
-48 0 -24 -4 -44 -10 -44 -5 0 -10 20 -10 45 0 41 -2 45 -24 45 -22 0 -25 -5
-29 -47 l-3 -48 -2 48 c-2 39 -5 47 -21 47 -34 0 -41 -117 -16 -280 17 -113
42 -188 94 -285 l38 -71 -9 -475 c-5 -261 -11 -480 -14 -486 -2 -8 -22 -13
-54 -13 l-50 0 0 -64 c0 -75 20 -137 60 -188 28 -34 30 -42 30 -123 0 -48 -3
-85 -7 -83 -109 54 -142 68 -174 73 -35 6 -39 10 -37 33 2 15 11 33 21 40 21
16 22 50 3 71 -11 13 -12 28 -5 71 18 103 -13 252 -69 340 -61 96 -184 181
-341 236 -60 21 -71 38 -71 114 0 58 -19 79 -21 23 -1 -21 -1 -44 1 -52 1 -7
-4 -26 -10 -41 -9 -21 -24 -31 -68 -44 -118 -37 -240 -102 -295 -159 -97 -99
-144 -236 -133 -391 5 -75 3 -92 -10 -108 -16 -17 -15 -20 10 -56 14 -21 26
-43 26 -49 0 -6 -28 -20 -62 -30 l-63 -19 -6 96 c-13 187 -11 266 8 281 25 21
43 73 43 123 0 43 -1 45 -32 48 l-33 3 -7 304 c-7 293 -7 306 12 337 40 64 62
146 67 257 5 93 4 107 -10 107 -9 0 -17 -11 -20 -27 l-4 -28 -2 28 c-1 36 -28
36 -34 0 l-4 -28 -2 28 c0 17 -7 27 -16 27 -13 0 -15 34 -15 243 l0 242 36 72
c33 65 37 82 42 172 l5 100 -49 3 -49 3 1 162 1 163 31 50 c42 67 52 109 52
213 0 80 -2 87 -20 87 -17 0 -20 -7 -20 -40 0 -22 -4 -40 -10 -40 -5 0 -10 18
-10 40 0 33 -3 40 -20 40 -17 0 -20 -7 -20 -39 0 -22 -4 -43 -10 -46 -6 -4
-10 12 -10 39 0 42 -2 46 -25 46 -24 0 -25 2 -25 64 0 50 5 70 24 99 21 31 23
37 10 48 -12 10 -12 14 5 25 11 8 25 30 31 49 15 46 -7 94 -61 129 -24 17 -39
34 -39 47 0 11 -5 30 -12 42 -6 12 -10 37 -10 56 1 19 -3 40 -8 46 -7 8 -3 21
11 40 l22 27 -22 45 c-18 37 -20 55 -15 107 4 41 2 77 -6 101 -11 34 -11 40 6
53 18 14 18 14 1 8 -45 -15 -77 47 -44 84 6 8 2 6 -10 -4 -30 -25 -29 -51 4
-82 25 -23 26 -26 13 -63 -8 -26 -10 -60 -6 -99 5 -47 3 -67 -13 -103 -20 -43
-20 -44 0 -75 14 -23 16 -34 8 -39 -6 -5 -9 -21 -6 -39 3 -18 -1 -43 -9 -56
-7 -14 -13 -37 -14 -52 0 -16 -4 -28 -10 -28 -5 0 -27 -16 -49 -35 -58 -52
-61 -106 -9 -155 22 -20 22 -22 5 -32 -18 -9 -17 -11 5 -35 18 -20 23 -38 26
-99 4 -70 3 -74 -17 -74 -18 0 -21 -6 -21 -39 0 -22 -4 -43 -10 -46 -6 -4 -10
12 -10 39 0 42 -2 46 -25 46 -22 0 -25 -4 -25 -40 0 -22 -4 -40 -10 -40 -5 0
-10 18 -10 40 0 29 -4 40 -15 40 -12 0 -15 -19 -15 -112 0 -102 3 -117 25
-153 45 -74 48 -87 53 -252 l4 -163 -51 0 -51 0 0 -74 c0 -82 25 -176 59 -224
20 -28 21 -42 22 -278 1 -216 -1 -249 -15 -252 -8 -2 -17 -15 -19 -30 l-4 -27
-2 28 c0 16 -7 27 -15 27 -8 0 -17 -12 -19 -27 l-4 -28 -2 28 c0 17 -7 27 -16
27 -12 0 -15 -15 -15 -77 0 -97 21 -185 61 -264 l31 -62 -8 -303 -7 -304 -33
0 c-33 0 -34 -1 -34 -42 0 -43 29 -120 49 -132 7 -5 11 -68 11 -192 l0 -184
-145 0 c-144 0 -145 0 -145 23 0 12 -11 454 -25 982 -13 528 -27 1111 -31
1295 l-6 335 46 69 c25 38 46 74 46 81 0 16 -31 42 -55 47 -17 3 -21 13 -25
63 l-5 60 -32 -3 -33 -4 0 1604 c0 1845 -13 1633 115 1758 92 90 115 131 115
201 0 49 -3 55 -45 96 -40 38 -45 48 -45 87 0 24 -3 58 -6 75 -6 31 -7 31 -69
31 l-62 0 -7 53 c-3 28 -6 125 -6 214 l0 162 47 21 c63 28 93 57 93 91 0 32
-47 98 -128 181 l-55 57 -5 79 c-4 74 -3 81 17 91 33 18 25 48 -28 104 l-48
52 -7 90 c-16 212 -52 461 -87 597 -15 59 -17 83 -9 104 9 23 7 33 -8 53 -26
37 -33 68 -16 82 16 13 19 65 4 74 -13 8 -13 96 -1 129 8 19 6 30 -10 49 -10
14 -19 40 -19 59 0 29 5 36 44 57 25 12 47 29 50 37 3 9 -5 7 -27 -6 -38 -24
-68 -25 -107 -5 -40 21 -60 53 -60 98 0 49 13 73 53 97 18 11 25 20 17 20 -26
0 -79 -38 -95 -69 -34 -66 -6 -143 62 -173 41 -18 43 -21 43 -62 0 -27 -6 -48
-15 -56 -19 -16 -19 -44 1 -60 18 -16 11 -82 -12 -115 -18 -25 -18 -49 1 -65
21 -17 19 -54 -5 -75 -21 -19 -26 -55 -11 -83 6 -11 -1 -59 -20 -142 -38 -160
-74 -373 -90 -525 l-13 -120 -41 -45 c-61 -65 -72 -90 -50 -106 10 -7 22 -15
28 -17 6 -2 11 -34 11 -71 l1 -68 -64 -56 c-88 -78 -151 -164 -151 -208 0 -28
6 -38 33 -54 17 -11 49 -25 70 -31 l37 -10 0 -219 0 -219 -72 -3 c-49 -2 -73
-7 -74 -15 -1 -7 -2 -42 -3 -78 -1 -63 -2 -64 -36 -81 -43 -20 -71 -54 -85
-102 -16 -61 41 -161 115 -199 39 -20 83 -61 101 -95 44 -85 44 -50 28 -1575
-8 -791 -17 -1493 -20 -1560 -6 -115 -7 -122 -27 -125 -19 -3 -22 -10 -25 -61
l-3 -57 -42 0 c-71 0 -72 -11 -17 -119 l48 -96 -8 -320 c-12 -428 -27 -1064
-40 -1655 -6 -267 -13 -522 -16 -567 l-6 -83 -39 0 -38 0 -3 348 -3 348 -28
42 c-15 24 -49 58 -75 77 -39 28 -47 39 -46 62 1 15 3 30 4 33 1 3 3 10 4 15
0 6 13 22 29 37 34 33 35 68 3 105 -22 26 -24 34 -16 69 15 62 12 257 -5 339
-40 190 -144 356 -291 461 -68 49 -254 140 -354 174 -87 30 -100 38 -100 58 0
10 -4 22 -9 28 -5 5 -12 57 -16 117 -6 89 -5 107 7 107 8 0 23 7 34 15 18 15
18 15 -8 9 -45 -10 -77 3 -94 40 -14 29 -15 37 -3 62 8 16 25 34 39 41 14 7
19 13 12 13 -19 0 -55 -20 -69 -39 -7 -9 -13 -32 -13 -53 0 -28 7 -42 31 -62
17 -14 34 -26 38 -26 4 0 3 -39 -1 -87 -4 -49 -6 -94 -3 -102 3 -8 -1 -21 -9
-30 -8 -9 -16 -25 -18 -36 -2 -13 -20 -25 -58 -38 -128 -43 -290 -110 -358
-148 -131 -72 -249 -203 -311 -343 -46 -105 -65 -203 -65 -341 0 -71 5 -147
11 -168 10 -32 9 -38 -7 -47 -45 -24 -39 -119 8 -134 19 -6 36 -52 25 -68 -2
-5 -75 -8 -161 -8 l-157 0 39 32 c98 81 100 215 5 299 l-41 36 66 74 c182 204
262 378 287 628 13 131 3 279 -27 394 -38 148 -138 312 -258 424 -95 90 -165
140 -403 294 -120 77 -240 158 -268 178 -147 111 -248 217 -314 331 -52 89
-57 106 -30 113 17 4 20 11 16 28 -4 14 1 33 14 50 37 52 14 137 -42 154 -14
5 -19 13 -16 25 3 10 -2 28 -9 39 -12 16 -14 61 -12 223 l3 202 45 8 c25 4 59
13 75 20 34 13 111 65 80 53 -11 -4 -36 -14 -55 -21 -53 -20 -151 -17 -213 6
-76 29 -130 79 -169 158 -29 58 -33 76 -32 142 0 90 23 147 84 214 44 48 127
96 169 97 15 0 35 5 46 10 14 6 -3 8 -54 5 -136 -9 -242 -81 -300 -205 -22
-47 -26 -69 -26 -141 1 -71 5 -94 28 -141 49 -102 150 -179 259 -197 l43 -8 3
-202 c2 -162 0 -207 -12 -223 -7 -11 -12 -29 -9 -40 4 -13 0 -19 -10 -19 -8 0
-27 -14 -41 -31 -34 -40 -35 -96 -2 -136 12 -15 21 -34 18 -42 -3 -8 3 -20 13
-27 16 -12 15 -17 -15 -71 -45 -80 -106 -156 -187 -234 -105 -101 -148 -133
-433 -321 -146 -97 -299 -205 -341 -241 -207 -177 -312 -398 -325 -682 -15
-303 71 -541 290 -810 36 -44 66 -82 66 -85 0 -3 -14 -14 -30 -23 -100 -60
-95 -249 8 -310 l37 -22 -134 -3 c-135 -3 -174 6 -151 33 6 8 6 15 -2 23 -9 9
-9 12 0 12 22 0 62 48 62 74 0 13 -11 37 -24 53 -21 25 -23 34 -15 73 13 71
10 252 -6 328 -43 206 -150 374 -303 476 -87 58 -226 125 -346 167 -79 28 -96
38 -96 55 0 11 -4 24 -9 30 -5 5 -13 57 -17 115 l-7 106 32 11 c37 13 42 25 6
16 -39 -10 -73 4 -90 36 -21 41 -19 58 14 91 32 32 31 35 -2 17 -34 -17 -46
-39 -47 -80 0 -28 7 -42 31 -62 17 -14 35 -26 40 -26 5 0 7 -10 4 -22 -3 -13
-7 -57 -9 -98 -2 -41 -8 -86 -14 -100 -6 -14 -13 -32 -15 -41 -4 -11 -46 -30
-119 -54 -62 -20 -169 -64 -238 -98 -112 -54 -133 -69 -210 -146 -47 -47 -100
-112 -119 -143 -85 -146 -125 -351 -102 -531 11 -89 11 -102 -3 -112 -41 -31
-33 -115 13 -130 12 -4 22 -16 23 -28 2 -36 3 -41 11 -54 5 -7 -1 -16 -14 -23
-39 -21 -100 -83 -120 -121 -18 -36 -19 -63 -19 -439 0 -393 0 -400 -20 -400
-12 0 -20 7 -20 18 0 9 -2 60 -5 112 -3 52 -10 284 -15 515 -5 231 -19 793
-31 1249 -11 455 -18 838 -15 850 3 12 24 49 46 83 51 75 50 103 0 119 -34 11
-35 13 -38 72 l-3 60 -32 -2 -32 -1 0 1605 0 1605 22 41 c12 23 50 67 85 98
113 102 145 174 113 254 -11 26 -30 50 -51 63 l-34 21 0 79 0 79 -70 0 -70 0
0 220 c0 163 3 220 12 220 28 0 100 44 113 70 23 45 3 81 -112 203 l-60 64 -6
78 c-5 74 -4 79 19 97 13 11 24 24 24 29 0 5 -22 33 -49 63 -54 60 -52 53 -71
251 -20 213 -65 484 -91 553 -6 17 -6 29 1 36 16 16 12 51 -10 79 -24 30 -25
50 -4 82 14 21 14 26 0 54 -19 35 -21 100 -4 135 9 21 8 29 -5 44 -24 26 -23
100 1 109 28 10 72 44 72 55 0 6 -8 4 -18 -5 -64 -58 -182 -1 -182 88 0 37 26
82 58 99 36 20 15 20 -25 0z m-93 -1759 c0 -69 -3 -85 -15 -85 -12 0 -15 16
-15 85 0 69 3 85 15 85 12 0 15 -16 15 -85z m90 0 c0 -69 -3 -85 -15 -85 -12
0 -15 16 -15 85 0 69 3 85 15 85 12 0 15 -16 15 -85z m90 0 c0 -78 -2 -85 -20
-85 -18 0 -20 7 -20 85 0 78 2 85 20 85 18 0 20 -7 20 -85z m70 0 c0 -69 -3
-85 -15 -85 -12 0 -15 16 -15 85 0 69 3 85 15 85 12 0 15 -16 15 -85z m80 0
c0 -69 -3 -85 -15 -85 -12 0 -15 16 -15 85 0 69 3 85 15 85 12 0 15 -16 15
-85z m6690 0 c0 -69 -3 -85 -15 -85 -12 0 -15 16 -15 85 0 69 3 85 15 85 12 0
15 -16 15 -85z m88 -3 c3 -77 2 -82 -18 -82 -19 0 -20 6 -20 86 0 76 2 85 18
82 14 -3 17 -16 20 -86z m82 3 c0 -69 -3 -85 -15 -85 -12 0 -15 16 -15 85 0
69 3 85 15 85 12 0 15 -16 15 -85z m80 0 c0 -69 -3 -85 -15 -85 -12 0 -15 16
-15 85 0 69 3 85 15 85 12 0 15 -16 15 -85z m80 -1 c0 -73 -2 -85 -16 -82 -15
3 -19 39 -15 153 1 8 8 15 16 15 12 0 15 -16 15 -86z m-7532 -1061 c-3 -103
-4 -108 -25 -111 -22 -3 -23 0 -24 55 0 32 -2 82 -2 110 -2 52 -1 53 26 53
l28 0 -3 -107z m132 -3 l0 -110 -25 0 -25 0 0 110 0 110 25 0 25 0 0 -110z
m130 -1 c0 -109 0 -110 -22 -107 -22 3 -23 8 -26 111 l-3 107 26 0 25 0 0
-111z m118 4 c-3 -108 -3 -108 -28 -108 -25 0 -25 0 -28 108 l-3 107 31 0 31
0 -3 -107z m112 -3 l0 -110 -25 0 -25 0 0 110 0 110 25 0 25 0 0 -110z m110
-1 c0 -109 0 -110 -22 -107 -22 3 -23 8 -26 111 l-3 107 26 0 25 0 0 -111z
m108 4 c-3 -108 -3 -108 -28 -108 -25 0 -25 0 -28 108 l-3 107 31 0 31 0 -3
-107z m6306 -1 c-1 -106 -1 -107 -25 -107 -24 0 -24 1 -27 108 l-3 107 28 0
28 0 -1 -108z m134 1 c-3 -108 -3 -108 -28 -108 -25 0 -25 0 -28 108 l-3 107
31 0 31 0 -3 -107z m130 0 c-3 -103 -4 -108 -25 -111 -23 -3 -23 -2 -23 107
l0 111 25 0 26 0 -3 -107z m112 -3 l0 -110 -25 0 -25 0 0 110 0 110 25 0 25 0
0 -110z m118 3 c-3 -108 -3 -108 -28 -108 -25 0 -25 0 -28 108 l-3 107 31 0
31 0 -3 -107z m110 0 c-3 -103 -4 -108 -25 -111 -23 -3 -23 -2 -23 107 l0 111
25 0 26 0 -3 -107z m102 -3 l0 -110 -25 0 -25 0 0 110 0 110 25 0 25 0 0 -110z
m-7350 -475 c56 -29 60 -50 60 -315 l0 -240 -115 0 -115 0 0 239 c0 231 1 239
23 272 38 57 91 73 147 44z m7045 -25 l30 -30 0 -248 0 -247 -112 -3 -113 -3
0 241 c0 268 4 289 63 316 45 20 95 10 132 -26z m-7045 -905 c56 -29 60 -50
60 -315 l0 -240 -115 0 -115 0 0 235 c0 256 3 272 56 314 31 25 74 27 114 6z
m7015 0 c57 -28 60 -43 60 -309 l0 -241 -112 -3 -113 -3 0 241 c0 263 4 285
58 314 35 20 66 20 107 1z m-6986 -1029 l26 -26 3 -249 3 -248 -23 -4 c-13 -2
-65 -3 -115 -1 l-93 3 0 231 c0 251 5 277 58 311 39 25 106 17 141 -17z m6990
19 c55 -28 61 -59 61 -314 l0 -231 -115 0 -115 0 0 38 c-3 282 2 437 16 463
27 53 97 74 153 44z m2815 -391 c8 -50 15 -168 15 -266 l2 -178 -46 0 -45 0 0
186 c0 177 11 299 32 354 8 21 11 23 19 9 5 -9 15 -56 23 -105z m143 49 c10
-38 17 -133 20 -275 l5 -218 -36 0 -36 0 0 203 c0 177 15 366 28 352 2 -2 11
-30 19 -62z m-308 -36 c6 -43 11 -163 11 -267 l0 -190 -36 0 -36 0 5 228 c5
213 19 335 37 315 4 -4 13 -43 19 -86z m-9981 -1038 l3 -126 -31 5 -30 4 0
117 c0 65 3 121 7 125 4 4 16 6 28 4 19 -3 20 -11 23 -129z m140 119 c12 -12
18 -229 7 -240 -3 -3 -16 -3 -29 -1 -22 5 -23 9 -29 116 -5 110 0 137 27 137
7 0 17 -5 24 -12z m142 -8 c6 -12 9 -64 8 -127 l-3 -107 -30 0 -30 0 -3 114
c-1 63 0 120 2 127 8 20 44 15 56 -7z m124 14 c13 -5 16 -26 16 -125 l0 -119
-29 0 -30 0 -3 113 c-3 130 3 148 46 131z m154 -6 c8 -8 12 -50 12 -124 l0
-112 -30 -4 c-17 -3 -32 -2 -34 1 -9 15 -3 227 6 239 13 15 31 15 46 0z m6450
0 c8 -8 12 -50 12 -125 l0 -113 -25 0 c-14 0 -27 1 -30 3 -11 5 -13 222 -3
234 13 16 31 16 46 1z m152 -8 c6 -12 9 -64 8 -127 l-3 -107 -30 0 -30 0 -3
114 c-1 63 0 120 2 127 8 20 44 15 56 -7z m138 -111 l3 -126 -30 5 -30 4 -3
110 c-3 119 2 141 35 136 21 -3 22 -8 25 -129z m131 117 c8 -9 11 -52 9 -127
l-3 -113 -30 0 -30 0 -3 113 c-3 113 4 141 33 141 7 0 18 -6 24 -14z m151 -6
c6 -12 9 -64 8 -127 l-3 -107 -30 0 -30 0 -3 114 c-1 63 0 120 2 127 8 20 44
15 56 -7z m648 -322 l4 -158 -26 0 -26 0 0 125 c0 68 5 147 11 176 19 88 33
34 37 -143z m-100 3 l5 -161 -28 0 -28 0 6 143 c8 159 14 204 30 188 5 -5 12
-82 15 -170z m200 -13 l5 -148 -28 0 -28 0 6 148 c3 81 9 158 13 171 l7 25 10
-25 c5 -13 12 -90 15 -171z m-9940 -350 l4 -178 -32 0 -33 0 5 173 c3 103 10
184 18 202 l12 30 11 -25 c6 -14 12 -105 15 -202z m110 0 l4 -178 -27 0 -28 0
6 173 c3 94 9 185 13 201 l7 30 10 -25 c6 -13 12 -104 15 -201z m-234 160 c3
-29 6 -117 6 -195 l0 -143 -26 0 -27 0 6 168 c6 166 13 222 27 222 4 0 10 -24
14 -52z m11910 26 l26 -27 0 -168 c0 -144 -2 -169 -15 -169 -11 0 -15 -13 -17
-47 l-2 -48 -3 48 -4 47 -45 0 -44 0 -2 -47 -1 -48 -4 42 c-3 30 -10 46 -24
53 -17 10 -19 22 -19 156 0 192 17 233 96 234 21 0 40 -9 58 -26z m-1936 -590
c20 -14 22 -23 22 -125 0 -66 -4 -109 -10 -109 -5 0 -11 -12 -11 -27 l-2 -28
-4 28 c-3 21 -10 27 -29 27 -19 0 -24 -5 -25 -27 l-2 -28 -4 28 c-2 15 -9 27
-14 27 -5 0 -9 47 -9 105 0 92 3 108 20 125 24 24 38 25 68 4z m-7183 -363 c7
-12 -12 -24 -25 -16 -11 7 -4 25 10 25 5 0 11 -4 15 -9z m290 -20 c-3 -11 3
-25 15 -36 25 -23 60 -116 60 -160 l0 -35 -86 0 -85 0 6 48 c8 52 38 127 61
154 9 9 13 22 9 27 -8 14 4 33 16 25 5 -3 7 -14 4 -23z m320 0 c-3 -10 1 -23
9 -30 20 -17 53 -99 60 -153 l7 -48 -85 0 c-83 0 -86 1 -86 23 0 39 28 122 55
161 14 21 23 42 20 47 -8 13 4 31 16 23 5 -3 7 -14 4 -23z m312 -2 c-3 -10 1
-23 8 -29 19 -16 52 -99 59 -152 l7 -48 -85 0 c-83 0 -86 1 -86 23 0 39 28
122 55 161 14 21 23 42 20 47 -9 13 4 31 17 23 5 -3 8 -15 5 -25z m298 1 c-3
-10 -1 -21 6 -25 23 -15 59 -110 59 -157 l0 -48 -84 0 -84 0 14 60 c15 64 36
113 61 142 8 9 12 22 8 27 -8 14 4 33 16 25 5 -3 7 -14 4 -24z m2930 19 c10
-15 -1 -23 -20 -15 -9 3 -13 10 -10 16 8 13 22 13 30 -1z m295 -19 c0 -11 11
-36 25 -56 28 -41 45 -94 45 -141 l0 -33 -86 0 -86 0 6 38 c14 73 26 110 51
146 14 21 23 42 20 47 -8 12 4 31 16 24 5 -4 9 -15 9 -25z m315 1 c-3 -10 1
-23 9 -30 20 -17 53 -99 60 -153 l7 -48 -85 0 c-83 0 -86 1 -86 23 0 39 27
116 55 158 14 22 23 44 20 49 -8 14 4 32 16 24 5 -3 7 -14 4 -23z m312 -2 c-3
-10 1 -23 8 -29 20 -16 52 -99 60 -152 l7 -48 -86 0 c-83 0 -86 1 -86 23 0 39
28 122 55 161 14 21 23 42 20 47 -9 13 4 31 17 23 5 -3 8 -15 5 -25z m299 5
c-3 -8 8 -35 25 -62 27 -44 54 -146 42 -164 -2 -5 -40 -8 -84 -8 -76 0 -79 1
-79 23 0 39 28 122 55 161 14 21 23 42 20 47 -8 13 4 31 16 23 6 -3 8 -12 5
-20z m-5355 -45 c26 -37 49 -110 49 -156 l0 -33 -85 0 c-47 0 -85 3 -85 8 1
63 64 212 89 212 6 0 19 -14 32 -31z m4149 2 c28 -41 50 -106 50 -152 l0 -39
-79 0 c-44 0 -82 4 -85 8 -12 20 33 158 66 200 15 18 25 15 48 -17z m-6814
-52 c26 -29 35 -244 11 -262 -9 -7 -18 -23 -20 -37 -4 -21 -5 -20 -6 8 -1 29
-4 32 -31 32 -27 0 -30 -3 -32 -32 l-1 -33 -4 33 c-2 17 -8 32 -14 32 -5 0 -9
52 -9 120 0 107 2 122 20 140 26 26 62 25 86 -1z m504 -297 c0 -21 -4 -23 -37
-20 -43 3 -45 14 -16 81 l16 38 18 -38 c10 -21 18 -48 19 -61z m131 8 c4 -22
0 -25 -33 -28 -44 -4 -46 2 -21 71 l17 48 17 -33 c9 -18 19 -44 20 -58z m132
43 c24 -68 23 -73 -23 -73 -39 0 -40 1 -34 28 4 15 13 37 21 50 7 12 11 27 8
32 -3 6 -2 10 2 10 5 0 17 -21 26 -47z m157 -54 c0 -16 -7 -19 -41 -19 -37 0
-40 2 -34 23 3 12 14 38 23 58 l16 36 18 -39 c10 -22 18 -49 18 -59z m110 83
c0 -10 4 -22 9 -27 5 -6 11 -23 13 -40 3 -28 1 -30 -34 -33 -45 -4 -49 12 -19
70 11 19 17 39 14 42 -4 3 -1 6 5 6 7 0 12 -8 12 -18z m1560 -47 c0 -9 6 -12
16 -8 15 5 14 3 -1 -21 -10 -15 -15 -29 -13 -32 8 -7 38 7 38 18 0 5 5 6 11 3
17 -11 -24 -34 -60 -33 -17 1 -34 5 -37 9 -3 5 1 6 9 3 20 -7 44 23 29 38 -15
15 -16 38 -2 38 6 0 10 -7 10 -15z m207 -17 c-3 -7 -5 -2 -5 12 0 14 2 19 5
13 2 -7 2 -19 0 -25z m223 17 c0 -9 6 -12 18 -8 13 5 15 3 5 -7 -6 -7 -19 -10
-27 -7 -17 7 -22 37 -6 37 6 0 10 -7 10 -15z m207 -17 c-3 -7 -5 -2 -5 12 0
14 2 19 5 13 2 -7 2 -19 0 -25z m223 22 c0 -5 8 -10 17 -10 13 0 14 -3 6 -11
-7 -7 -19 -9 -27 -6 -17 7 -22 37 -6 37 6 0 10 -4 10 -10z m213 -15 c-7 -21
-13 -19 -13 6 0 11 4 18 10 14 5 -3 7 -12 3 -20z m214 -7 c-3 -7 -5 -2 -5 12
0 14 2 19 5 13 2 -7 2 -19 0 -25z m2863 18 c0 -19 -31 -29 -44 -15 -8 9 -7 10
7 6 11 -4 17 -1 17 8 0 8 5 15 10 15 6 0 10 -6 10 -14z m207 -16 c-4 -16 -2
-30 3 -30 5 0 7 -7 4 -15 -4 -8 -10 -15 -15 -15 -4 0 -6 7 -3 15 4 8 2 15 -4
15 -5 0 -12 9 -15 20 -6 22 8 28 16 8 3 -7 6 -3 6 10 1 12 4 22 7 22 4 0 4
-13 1 -30z m223 15 c0 -9 6 -12 18 -8 10 4 14 2 9 -3 -11 -12 -67 -14 -67 -2
0 5 5 6 10 3 6 -3 10 1 10 9 0 9 5 16 10 16 6 0 10 -7 10 -15z m213 -10 c-7
-21 -13 -19 -13 6 0 11 4 18 10 14 5 -3 7 -12 3 -20z m217 7 c0 -20 -35 -27
-46 -10 -5 7 -1 9 9 5 11 -4 17 -1 17 8 0 8 5 15 10 15 6 0 10 -8 10 -18z
m213 -7 c-7 -21 -13 -19 -13 6 0 11 4 18 10 14 5 -3 7 -12 3 -20z m-5338 -5
c3 -5 1 -10 -4 -10 -6 0 -11 5 -11 10 0 6 2 10 4 10 3 0 8 -4 11 -10z m95 -25
c0 -5 -5 -3 -10 5 -5 8 -10 20 -10 25 0 6 5 3 10 -5 5 -8 10 -19 10 -25z m164
27 c3 -5 -1 -9 -9 -9 -8 0 -12 4 -9 9 3 4 7 8 9 8 2 0 6 -4 9 -8z m141 -2 c-3
-5 -12 -10 -18 -10 -7 0 -6 4 3 10 19 12 23 12 15 0z m122 -10 c3 -11 9 -20
13 -20 4 0 10 -7 14 -15 4 -11 -1 -15 -17 -14 -12 0 -16 3 -9 6 9 3 7 12 -9
34 -12 17 -15 29 -9 29 7 0 14 -9 17 -20z m257 6 c-3 -9 4 -16 21 -20 40 -10
16 -32 -37 -34 -29 -2 -38 1 -29 7 8 5 20 7 27 4 7 -2 21 0 31 6 16 9 16 10 1
11 -20 0 -32 16 -23 30 9 15 15 12 9 -4z m173 -3 c10 -28 32 -45 44 -37 7 4 9
3 6 -3 -4 -6 -19 -10 -34 -10 -16 0 -22 2 -15 4 9 4 6 13 -9 34 -11 16 -15 29
-9 29 6 0 14 -8 17 -17z m308 7 c3 -5 -1 -10 -10 -10 -9 0 -13 5 -10 10 3 6 8
10 10 10 2 0 7 -4 10 -10z m2895 0 c0 -5 -4 -10 -10 -10 -5 0 -10 5 -10 10 0
6 5 10 10 10 6 0 10 -4 10 -10z m140 6 c0 -3 -4 -8 -10 -11 -5 -3 -10 -1 -10
4 0 6 5 11 10 11 6 0 10 -2 10 -4z m335 -14 c-3 -3 -11 0 -18 7 -9 10 -8 11 6
5 10 -3 15 -9 12 -12z m139 10 c3 -5 -1 -9 -9 -9 -8 0 -12 4 -9 9 3 4 7 8 9 8
2 0 6 -4 9 -8z m291 -10 c-3 -3 -11 0 -18 7 -9 10 -8 11 6 5 10 -3 15 -9 12
-12z m95 14 c0 -3 -4 -8 -10 -11 -5 -3 -10 -1 -10 4 0 6 5 11 10 11 6 0 10 -2
10 -4z m49 -19 c0 -9 -2 -8 -6 1 -2 6 -10 9 -15 6 -7 -4 -8 -2 -4 5 9 13 26 5
25 -12z m111 13 c0 -5 -2 -10 -4 -10 -3 0 -8 5 -11 10 -3 6 -1 10 4 10 6 0 11
-4 11 -10z m-5090 -4 c0 -3 -4 -8 -10 -11 -5 -3 -10 -1 -10 4 0 6 5 11 10 11
6 0 10 -2 10 -4z m210 -6 c0 -5 -2 -10 -4 -10 -3 0 -8 5 -11 10 -3 6 -1 10 4
10 6 0 11 -4 11 -10z m200 -10 c-28 -22 -46 -25 -56 -9 -4 8 0 9 15 4 14 -4
21 -2 21 7 0 8 10 14 23 15 22 2 22 2 -3 -17z m230 10 c0 -5 -2 -10 -4 -10 -3
0 -8 5 -11 10 -3 6 -1 10 4 10 6 0 11 -4 11 -10z m220 6 c0 -3 -4 -8 -10 -11
-5 -3 -10 -1 -10 4 0 6 5 11 10 11 6 0 10 -2 10 -4z m220 0 c0 -3 -4 -8 -10
-11 -5 -3 -10 -1 -10 4 0 6 5 11 10 11 6 0 10 -2 10 -4z m220 0 c0 -3 -4 -8
-10 -11 -5 -3 -10 -1 -10 4 0 6 5 11 10 11 6 0 10 -2 10 -4z m2850 0 c0 -3 -4
-8 -10 -11 -5 -3 -10 -1 -10 4 0 6 5 11 10 11 6 0 10 -2 10 -4z m210 -6 c0 -5
-2 -10 -4 -10 -3 0 -8 5 -11 10 -3 6 -1 10 4 10 6 0 11 -4 11 -10z m220 6 c0
-3 -4 -8 -10 -11 -5 -3 -10 -1 -10 4 0 6 5 11 10 11 6 0 10 -2 10 -4z m210 -6
c0 -5 -2 -10 -4 -10 -3 0 -8 5 -11 10 -3 6 -1 10 4 10 6 0 11 -4 11 -10z m220
0 c0 -5 -4 -10 -10 -10 -5 0 -10 5 -10 10 0 6 5 10 10 10 6 0 10 -4 10 -10z
m220 6 c0 -3 -4 -8 -10 -11 -5 -3 -10 -1 -10 4 0 6 5 11 10 11 6 0 10 -2 10
-4z m220 0 c0 -3 -4 -8 -10 -11 -5 -3 -10 -1 -10 4 0 6 5 11 10 11 6 0 10 -2
10 -4z m-5620 -26 c0 -5 -5 -10 -11 -10 -5 0 -7 5 -4 10 3 6 8 10 11 10 2 0 4
-4 4 -10z m221 1 c-11 -7 -9 -10 8 -16 11 -3 25 -3 31 0 5 3 10 1 10 -5 0 -12
-65 -8 -78 5 -7 7 17 25 33 25 6 0 4 -4 -4 -9z m109 -1 c8 -5 12 -11 10 -14
-3 -2 -14 2 -24 10 -22 15 -10 19 14 4z m100 0 c0 -5 -5 -10 -11 -10 -5 0 -7
5 -4 10 3 6 8 10 11 10 2 0 4 -4 4 -10z m215 -6 c-9 -9 -19 -13 -23 -10 -3 4
0 11 8 16 24 15 33 11 15 -6z m215 6 c0 -5 -5 -10 -11 -10 -5 0 -7 5 -4 10 3
6 8 10 11 10 2 0 4 -4 4 -10z m115 0 c3 -6 -1 -7 -9 -4 -18 7 -21 14 -7 14 6
0 13 -4 16 -10z m105 0 c-8 -5 -19 -10 -25 -10 -5 0 -3 5 5 10 8 5 20 10 25
10 6 0 3 -5 -5 -10z m114 1 c3 -5 -1 -14 -9 -21 -13 -10 -15 -9 -15 9 0 21 14
28 24 12z m100 -5 c-10 -8 -21 -12 -24 -10 -5 6 21 24 34 24 6 0 1 -6 -10 -14z
m119 8 c8 -8 -3 -34 -15 -34 -6 0 -8 6 -5 14 3 8 1 17 -6 20 -7 2 -6 5 4 5 9
1 18 -2 22 -5z m2742 -11 c-2 -10 -4 -20 -4 -23 -1 -3 -5 2 -10 10 -10 15 -6
30 9 30 4 0 7 -8 5 -17z m115 -2 c0 -4 -6 -8 -14 -8 -8 0 -12 6 -9 14 5 13 23
9 23 -6z m95 9 c-3 -5 -12 -10 -18 -10 -7 0 -6 4 3 10 19 12 23 12 15 0z m120
0 c3 -5 2 -10 -4 -10 -5 0 -13 5 -16 10 -3 6 -2 10 4 10 5 0 13 -4 16 -10z
m100 0 c-3 -5 -11 -10 -16 -10 -6 0 -7 5 -4 10 3 6 11 10 16 10 6 0 7 -4 4
-10z m111 -1 c3 -6 1 -16 -5 -22 -9 -9 -11 -8 -6 5 4 11 0 18 -12 21 -15 4
-16 5 -1 6 9 0 20 -4 24 -10z m98 -2 c-3 -8 5 -13 21 -15 14 -1 25 3 25 8 0 6
5 10 11 10 5 0 7 -5 3 -12 -5 -8 0 -9 14 -6 12 4 19 2 16 -3 -8 -14 -102 -8
-108 7 -5 13 2 24 15 24 5 0 6 -6 3 -13z m121 3 c3 -5 2 -10 -4 -10 -5 0 -13
5 -16 10 -3 6 -2 10 4 10 5 0 13 -4 16 -10z m95 -5 c-7 -9 -15 -13 -17 -11 -7
7 7 26 19 26 6 0 6 -6 -2 -15z m117 -1 c2 -6 -3 -11 -10 -11 -8 0 -14 6 -14
14 0 15 19 12 24 -3z m213 6 c13 -8 12 -12 -4 -27 -16 -14 -17 -15 -7 -1 10
14 9 18 -6 27 -10 6 -13 10 -8 11 6 0 17 -5 25 -10z m-5167 -15 c8 -18 -11
-31 -25 -17 -11 11 -3 32 12 32 4 0 10 -7 13 -15z m217 -6 c0 -5 -10 -9 -21
-9 -18 0 -19 2 -9 15 12 15 30 12 30 -6z m214 6 c4 -10 -1 -15 -14 -15 -20 0
-26 11 -13 23 10 11 20 8 27 -8z m217 -18 c-5 -5 -17 -7 -26 -3 -14 5 -15 9
-5 21 10 12 16 13 27 4 9 -8 10 -16 4 -22z m205 5 c-22 -5 -30 3 -21 18 5 8
11 7 22 -2 15 -12 14 -13 -1 -16z m124 5 c8 -3 -4 -6 -27 -6 -24 -1 -43 4 -43
10 0 6 9 8 20 4 13 -4 20 -2 20 7 0 9 3 9 8 2 4 -6 14 -14 22 -17z m100 -3 c0
-8 -7 -14 -15 -14 -15 0 -21 21 -9 33 10 9 24 -2 24 -19z m210 16 c0 -5 -5
-10 -11 -10 -5 0 -7 5 -4 10 3 6 8 10 11 10 2 0 4 -4 4 -10z m2863 -5 c8 -18
-11 -31 -25 -17 -11 11 -3 32 12 32 4 0 10 -7 13 -15z m217 -11 c0 -14 -21
-19 -33 -7 -9 9 13 34 24 27 5 -3 9 -12 9 -20z m213 11 c8 -18 -11 -31 -25
-17 -11 11 -3 32 12 32 4 0 10 -7 13 -15z m323 0 c16 -16 17 -16 -37 -19 -17
-1 -25 2 -22 10 2 7 14 9 25 6 14 -3 19 -1 14 6 -10 17 3 15 20 -3z m107 1 c4
-10 0 -14 -14 -13 -20 1 -24 9 -12 20 10 11 20 8 26 -7z m101 2 c-5 -8 0 -9
15 -5 18 4 20 3 10 -9 -11 -14 -54 -10 -73 7 -5 4 1 5 13 2 12 -3 21 -1 21 6
0 6 5 11 11 11 5 0 7 -5 3 -12z m116 -2 c0 -8 -4 -17 -9 -21 -12 -7 -24 12
-16 25 9 15 25 12 25 -4z m-5095 -6 c-3 -5 -12 -10 -18 -10 -7 0 -6 4 3 10 19
12 23 12 15 0z m1075 -6 c0 -2 -15 -4 -32 -4 -23 0 -29 3 -19 9 12 8 51 4 51
-5z m2850 0 c0 -2 -15 -4 -32 -3 -27 0 -29 2 -13 8 18 8 45 4 45 -5z m428 2
c3 -3 -16 -6 -42 -6 -26 0 -45 4 -42 9 6 9 74 7 84 -3z m312 -1 c0 -8 -6 -15
-14 -15 -17 0 -28 14 -19 24 12 12 33 6 33 -9z m-6950 -45 c0 -5 -2 -10 -4
-10 -3 0 -8 5 -11 10 -3 6 -1 10 4 10 6 0 11 -4 11 -10z m100 0 c0 -5 -2 -10
-4 -10 -3 0 -8 5 -11 10 -3 6 -1 10 4 10 6 0 11 -4 11 -10z m195 -371 c47 -49
87 -103 103 -137 27 -57 27 -58 27 -302 l0 -245 -228 -3 -228 -2 3 252 3 253
30 60 c34 68 163 205 193 205 11 0 52 -34 97 -81z m2488 -208 c159 -130 304
-306 367 -445 57 -124 60 -165 60 -736 l0 -520 -506 0 -505 0 3 553 c3 502 5
557 22 607 42 126 124 258 242 389 42 47 230 211 242 211 2 0 36 -26 75 -59z
m4148 3 c160 -130 306 -309 370 -451 57 -123 59 -149 59 -725 l0 -528 -506 0
-505 0 3 553 c4 500 6 557 22 607 59 178 198 367 385 522 52 43 97 78 99 78 3
0 35 -25 73 -56z m2831 -84 l3 -35 -53 -3 -54 -3 7 33 c4 18 17 54 28 79 l22
45 21 -41 c12 -22 24 -56 26 -75z m162 66 c14 -30 26 -66 26 -80 0 -24 -3 -26
-50 -26 -48 0 -50 1 -50 28 0 15 9 45 20 67 11 22 20 45 20 52 0 24 8 14 34
-41z m221 -73 l7 -33 -57 0 -57 0 7 28 c3 15 15 45 26 68 10 22 19 47 19 55 0
20 46 -80 55 -118z m150 109 c1 -4 8 -21 17 -37 9 -17 19 -47 23 -68 l7 -37
-56 0 c-56 0 -56 0 -50 28 3 15 15 45 25 68 10 22 19 46 19 54 0 13 15 5 15
-8z m208 -54 c9 -21 17 -49 17 -63 0 -23 -3 -25 -51 -25 l-51 0 6 31 c3 17 14
47 23 67 10 20 18 40 19 45 4 20 7 20 13 2 4 -11 15 -37 24 -57z m-663 -174
c0 -2 -9 -4 -21 -4 -11 0 -18 4 -14 10 5 8 35 3 35 -6z m270 0 c0 -2 -7 -4
-15 -4 -8 0 -15 4 -15 10 0 5 7 7 15 4 8 -4 15 -8 15 -10z m115 6 c3 -5 -1
-10 -10 -10 -9 0 -13 5 -10 10 3 6 8 10 10 10 2 0 7 -4 10 -10z m265 0 c0 -5
-5 -10 -11 -10 -5 0 -7 5 -4 10 3 6 8 10 11 10 2 0 4 -4 4 -10z m-133 -6 c-3
-3 -12 -4 -19 -1 -8 3 -5 6 6 6 11 1 17 -2 13 -5z m-14 -27 c4 3 7 2 7 -3 0
-6 -19 -9 -42 -8 -24 2 -49 3 -56 3 -7 1 -11 5 -8 9 3 5 19 7 37 4 25 -4 30
-2 24 9 -5 8 0 6 12 -4 11 -9 23 -14 26 -10z m-545 -12 c-3 -3 -9 2 -12 12 -6
14 -5 15 5 6 7 -7 10 -15 7 -18z m397 14 c11 -16 1 -19 -13 -3 -7 8 -8 14 -3
14 5 0 13 -5 16 -11z m-205 -3 c0 -3 -4 -8 -10 -11 -5 -3 -10 -1 -10 4 0 6 5
11 10 11 6 0 10 -2 10 -4z m40 0 c0 -3 -4 -8 -10 -11 -5 -3 -10 -1 -10 4 0 6
5 11 10 11 6 0 10 -2 10 -4z m130 -6 c0 -5 -4 -10 -10 -10 -5 0 -10 5 -10 10
0 6 5 10 10 10 6 0 10 -4 10 -10z m-4527 -194 c41 -17 81 -62 96 -105 7 -23
11 -182 11 -512 l0 -479 -170 0 -170 0 -1 188 c-3 582 1 803 15 830 41 79 137
113 219 78z m-1053 -16 c21 -11 49 -34 62 -52 l23 -33 3 -502 3 -503 -171 0
-170 0 0 484 c0 318 4 494 11 513 35 95 149 139 239 93z m-530 -12 c18 -13 43
-36 54 -51 21 -28 21 -39 24 -533 l3 -504 -171 0 -170 0 0 488 c0 453 2 490
19 528 17 38 54 73 91 87 39 15 118 7 150 -15z m1081 -1 c18 -12 44 -38 56
-56 26 -38 26 -34 24 -601 0 -162 -1 -325 -1 -362 l0 -68 -170 0 -171 0 3 498
3 498 26 41 c34 49 79 72 145 73 37 0 60 -6 85 -23z m5094 -233 c75 -73 135
-162 165 -240 19 -51 20 -77 20 -409 l0 -355 -311 0 -310 0 3 363 3 362 36 75
c45 92 112 176 203 252 l69 58 28 -21 c16 -11 58 -49 94 -85z"/>
<path d="M12310 7805 c0 -8 5 -15 10 -15 6 0 10 7 10 15 0 8 -4 15 -10 15 -5
0 -10 -7 -10 -15z"/>
<path d="M6010 6605 c-8 -16 -26 -29 -43 -32 l-28 -6 21 -22 c16 -17 19 -29
14 -50 -6 -25 -5 -27 12 -20 24 10 54 11 77 0 16 -6 17 -4 11 19 -5 20 -1 33
15 50 l22 23 -28 6 c-15 3 -35 17 -44 32 l-15 26 -14 -26z"/>
<path d="M1317 3373 c-14 -13 -6 -49 13 -61 11 -7 20 -8 20 -3 0 5 -7 12 -16
15 -11 4 -15 14 -12 31 6 27 5 29 -5 18z"/>
<path d="M11212 2838 c-35 -35 14 -113 56 -89 15 9 15 10 -4 11 -22 0 -54 29
-54 48 0 6 7 18 16 26 8 9 12 16 7 16 -5 0 -14 -5 -21 -12z"/>
</g>
</svg>
