<?xml version="1.0" standalone="no"?>
<!DOCTYPE svg PUBLIC "-//W3C//DTD SVG 20010904//EN"
 "http://www.w3.org/TR/2001/REC-SVG-20010904/DTD/svg10.dtd">
<svg version="1.0" xmlns="http://www.w3.org/2000/svg"
 width="1280.000000pt" height="819.000000pt" viewBox="0 0 1280.000000 819.000000"
 preserveAspectRatio="xMidYMid meet">
<metadata>
Created by potrace 1.15, written by Peter Selinger 2001-2017
</metadata>
<g transform="translate(0.000000,819.000000) scale(0.100000,-0.100000)"
fill="#ffffff" stroke="none">
<path d="M5834 7895 c-192 -42 -339 -194 -352 -363 -4 -56 1 -82 26 -159 37
-109 116 -270 219 -445 l75 -128 168 0 169 0 65 123 c76 145 147 300 184 405
22 63 26 95 27 177 0 91 -3 105 -30 158 -91 180 -329 280 -551 232z m225 -50
c127 -30 231 -110 279 -213 58 -125 26 -259 -137 -585 l-96 -192 -47 -3 c-35
-2 -48 1 -48 10 0 11 114 446 136 520 3 11 -4 19 -23 25 -21 8 -44 4 -96 -13
l-68 -23 -62 23 c-63 24 -107 21 -107 -5 0 -10 116 -454 136 -522 5 -16 0 -18
-43 -15 l-48 3 -57 95 c-79 129 -182 339 -213 429 -33 98 -33 178 0 248 80
173 290 266 494 218z m-155 -491 c43 -15 52 -15 113 0 36 9 67 15 70 13 2 -2
-19 -87 -46 -188 -27 -101 -55 -204 -62 -229 l-12 -45 -32 120 c-18 66 -46
171 -62 233 -17 61 -27 112 -24 112 4 0 29 -7 55 -16z"/>
<path d="M6712 7767 c-17 -13 -41 -36 -52 -50 -12 -15 -116 -220 -231 -456
-290 -593 -290 -556 -1 -700 292 -145 264 -167 556 434 191 393 210 435 214
493 7 106 4 110 -199 212 -198 100 -231 108 -287 67z m233 -170 l160 -82 3
-40 c2 -33 -11 -68 -73 -197 -72 -149 -115 -209 -148 -208 -7 1 -86 38 -177
83 l-165 82 -3 46 c-3 39 7 65 77 206 78 158 105 193 146 193 11 -1 92 -38
180 -83z m-450 -439 c28 -12 31 -25 13 -63 -13 -28 -17 -30 -53 -13 -29 13
-30 19 -10 58 18 34 16 34 50 18z m120 -60 c28 -12 31 -25 13 -63 -13 -30 -28
-31 -58 -7 -22 18 -22 19 -6 50 19 37 17 36 51 20z m125 -63 l30 -15 -17 -35
c-19 -39 -31 -43 -61 -17 -20 16 -20 20 -7 50 16 37 16 37 55 17z m-319 -40
c29 -16 29 -16 13 -48 -9 -18 -18 -33 -19 -35 -6 -7 -65 29 -61 37 3 4 10 20
15 35 12 31 13 31 52 11z m439 -20 l30 -15 -17 -35 c-19 -39 -28 -42 -60 -20
-22 15 -22 17 -6 50 9 19 18 35 20 35 2 0 17 -7 33 -15z m-319 -40 c29 -16 29
-16 13 -48 -9 -18 -18 -33 -19 -35 -2 -2 -17 4 -34 12 l-31 16 17 35 c9 19 18
35 20 35 2 0 17 -7 34 -15z m119 -60 c27 -14 28 -17 18 -45 -13 -40 -22 -44
-57 -25 l-31 15 17 35 c9 19 18 35 20 35 2 0 17 -7 33 -15z m-315 -37 c29 -13
30 -19 10 -59 -15 -29 -16 -29 -45 -14 -33 17 -35 23 -18 60 13 28 17 30 53
13z m453 -33 c12 -10 11 -18 -2 -44 -19 -36 -18 -36 -56 -16 l-30 15 17 35
c13 28 21 34 37 29 12 -3 27 -12 34 -19z m-333 -27 c29 -13 30 -19 10 -59 -15
-29 -16 -29 -45 -14 -33 17 -35 23 -18 60 13 28 17 30 53 13z m120 -60 c29
-13 30 -19 10 -59 -15 -29 -16 -29 -45 -14 -33 17 -35 23 -18 60 13 28 17 30
53 13z m120 -60 c29 -13 30 -19 10 -59 -15 -29 -16 -29 -45 -14 -33 17 -35 23
-18 60 13 28 17 30 53 13z"/>
<path d="M5246 7555 c-58 -34 -191 -142 -234 -187 -23 -25 -23 -25 -100 -12
-42 8 -87 16 -99 19 l-22 5 24 43 c29 49 33 112 9 121 -46 18 -129 -21 -197
-91 l-37 -39 -84 14 c-81 15 -85 14 -110 -5 -61 -49 -100 -87 -91 -90 60 -21
455 -211 455 -218 0 -5 -59 -83 -132 -172 -132 -161 -133 -163 -173 -162 -22
0 -53 6 -70 14 l-30 13 43 1 42 1 0 89 c0 128 20 121 -327 121 -342 0 -325 7
-321 -123 l3 -82 239 -3 c209 -2 237 -4 226 -17 -11 -13 -66 -15 -366 -15
-346 0 -398 -4 -416 -33 -4 -7 -8 -121 -8 -254 0 -301 -9 -286 170 -281 l95 3
3 123 3 122 374 0 374 0 3 -122 3 -123 116 0 c84 0 121 4 132 14 15 12 17 43
17 266 0 285 2 279 -76 280 -24 0 -43 3 -41 7 3 10 256 208 265 208 4 0 63
-111 130 -247 l124 -246 39 44 c21 24 41 54 45 66 3 12 -1 56 -10 98 l-16 77
56 61 c80 86 113 164 82 195 -25 25 -102 7 -151 -36 -9 -8 -19 -13 -22 -10 -5
5 -45 193 -45 212 0 6 32 47 71 91 84 95 136 170 154 222 27 79 -24 96 -119
38z m-1555 -904 c19 -16 22 -23 13 -37 -16 -27 -39 -38 -67 -30 -37 9 -46 45
-17 68 28 23 42 23 71 -1z"/>
<path d="M7383 7332 c-24 -4 -63 -46 -63 -68 0 -12 81 -14 480 -14 l480 0 0
-290 0 -290 -330 0 -330 0 0 -80 0 -80 344 0 345 0 28 24 28 24 0 366 c0 337
-1 367 -18 383 -16 17 -53 18 -480 23 -254 3 -472 4 -484 2z m482 -742 c0 -18
-6 -26 -23 -28 -24 -4 -38 18 -28 44 3 9 15 14 28 12 17 -2 23 -10 23 -28z"/>
<path d="M7224 7180 c-54 -21 -54 -23 -54 -455 l0 -400 -645 3 c-638 2 -644 2
-655 -18 -9 -17 -10 -319 -1 -735 0 -11 -1 -78 -3 -150 -2 -71 0 -140 5 -152
4 -12 11 -154 14 -315 3 -188 11 -335 21 -411 13 -91 14 -124 5 -143 -9 -21
-14 -23 -31 -14 -31 17 -106 123 -125 177 -9 27 -26 66 -37 88 -11 22 -70 137
-130 255 l-110 215 88 3 c71 2 89 0 96 -13 12 -21 30 -19 51 5 15 18 17 56 17
420 l0 400 -320 0 -320 0 0 -400 c0 -368 1 -402 18 -419 9 -11 26 -21 37 -23
12 -2 20 -12 20 -23 1 -11 8 -31 17 -45 9 -14 47 -117 83 -229 66 -200 137
-393 209 -561 35 -82 46 -140 27 -140 -25 0 -219 161 -315 261 -115 121 -221
219 -271 250 -19 12 -48 19 -78 19 -42 0 -54 -5 -83 -34 -29 -29 -34 -41 -34
-82 0 -45 7 -59 94 -186 52 -75 97 -141 100 -146 3 -6 -13 -5 -42 1 -26 5
-149 10 -274 11 l-228 1 0 43 0 42 -630 0 -630 0 0 -385 0 -385 288 0 288 0
-4 -35 -4 -35 -67 0 c-64 0 -67 -1 -88 -34 -12 -18 -23 -44 -25 -57 l-3 -24
243 -3 242 -2 0 22 c0 12 -12 39 -26 60 -26 38 -27 38 -94 38 l-68 0 -4 35 -4
35 294 0 293 0 -1 58 c-1 31 -1 113 0 182 l1 125 20 -44 19 -43 65 4 c36 2 65
1 65 -3 0 -4 8 -9 18 -11 13 -4 26 -36 51 -128 39 -140 42 -133 -61 -150 -37
-7 -71 -17 -77 -23 -5 -7 -9 -46 -8 -87 l2 -75 240 0 240 0 2 80 c4 116 1 123
-50 127 l-42 3 -47 170 c-26 94 -47 178 -47 188 -1 14 8 17 52 18 28 1 63 4
76 8 28 8 57 44 66 83 7 26 6 27 -47 31 l-53 3 53 2 c66 3 69 22 2 22 -27 0
-50 5 -50 10 0 6 23 10 50 10 67 0 64 20 -2 22 l-53 2 49 3 c42 4 47 7 43 24
-3 10 -4 19 -2 19 1 0 43 -51 93 -112 49 -62 131 -160 181 -218 100 -115 146
-196 160 -280 18 -111 122 -393 205 -558 56 -111 76 -198 76 -330 1 -169 -20
-573 -34 -669 -9 -56 -20 -152 -26 -215 -11 -108 -44 -323 -56 -360 -7 -25
-16 -23 -135 21 -140 53 -212 66 -269 51 -41 -11 -110 -66 -110 -87 0 -5 26
-8 58 -6 61 4 101 -5 297 -72 61 -21 115 -39 121 -41 7 -1 9 -14 6 -29 -5 -27
-7 -27 -56 -22 -28 3 -107 27 -176 53 -101 38 -140 48 -205 51 -90 5 -124 -9
-164 -66 l-22 -31 59 6 c54 6 74 1 241 -55 133 -45 200 -62 242 -64 33 -1 59
-2 59 -2 0 -2 -51 -189 -70 -255 -5 -19 -10 -39 -11 -45 0 -5 -4 -14 -9 -20
-4 -5 -11 -28 -15 -50 -4 -22 -11 -44 -14 -50 -4 -5 -8 -26 -10 -45 -2 -19 -9
-39 -17 -43 -9 -5 -12 -16 -9 -28 4 -11 2 -19 -6 -19 -8 0 -9 -10 -5 -30 9
-47 -72 -363 -129 -502 -7 -17 39 -18 880 -18 840 0 886 1 881 18 -40 128 -66
312 -66 467 -1 101 -16 215 -34 243 -28 46 -37 176 -47 657 -5 275 -12 555
-15 623 l-6 122 451 0 451 0 0 25 0 25 -452 2 c-350 2 -452 6 -456 16 -3 9 91
12 448 12 269 0 450 4 448 9 -1 5 -52 64 -113 130 l-110 121 -347 0 c-341 0
-348 0 -348 20 0 20 7 20 345 20 l345 0 0 250 0 250 -220 0 c-121 0 -220 2
-220 4 0 3 25 57 55 120 62 129 100 180 266 356 l117 123 -9 -44 c-23 -120 1
-269 63 -399 33 -70 56 -100 127 -170 140 -138 275 -194 471 -193 85 0 120 6
185 27 207 67 364 220 437 426 19 56 23 85 23 205 0 120 -4 149 -23 205 -88
248 -306 425 -554 448 -129 13 -247 -7 -380 -63 -17 -7 -18 4 -18 139 l0 146
-165 0 -165 0 0 -168 0 -167 -45 -16 -45 -17 0 414 0 414 -292 -2 -293 -3 -5
-470 -5 -470 -22 52 c-37 84 -55 176 -44 225 18 80 23 182 26 533 2 193 9 388
14 435 21 164 7 275 -40 342 -26 36 -55 39 -112 9 -65 -34 -101 -107 -122
-251 -34 -229 -124 -662 -136 -654 -12 7 -38 143 -54 279 -8 72 -24 164 -34
205 -19 75 -34 168 -47 290 -6 58 -21 142 -40 223 l-6 27 426 0 426 0 0 -26
c0 -24 2 -25 48 -22 40 3 47 6 50 26 3 17 10 22 32 22 60 0 60 -1 60 357 l0
326 21 -19 c19 -17 37 -19 159 -19 133 0 139 1 164 24 l26 24 0 433 c0 238 -3
440 -6 449 -13 34 -58 45 -181 44 -65 0 -128 -4 -139 -9z m246 -110 l0 -30
-105 0 -105 0 0 30 0 30 105 0 105 0 0 -30z m0 -150 l0 -30 -105 0 -105 0 0
30 0 30 105 0 105 0 0 -30z m-155 -440 c0 -18 -6 -26 -23 -28 -24 -4 -38 18
-28 44 3 9 15 14 28 12 17 -2 23 -10 23 -28z m-642 -220 c50 -5 85 -14 97 -25
58 -52 58 -438 0 -490 -29 -26 -146 -37 -395 -37 -246 0 -369 11 -393 36 -50
50 -55 405 -6 483 17 27 47 33 221 42 146 8 347 4 476 -9z m-1463 -521 c0
-109 -2 -120 -17 -117 -16 3 -18 18 -21 121 -3 112 -2 117 18 117 19 0 20 -6
20 -121z m1823 94 c-18 -2 -48 -2 -65 0 -18 2 -4 4 32 4 36 0 50 -2 33 -4z
m146 -1329 c12 -15 21 -34 21 -44 0 -32 -39 -70 -73 -70 -38 0 -77 34 -77 69
0 65 89 96 129 45z m-56 -258 c50 -20 95 -78 103 -131 5 -37 2 -54 -18 -93
-34 -66 -84 -94 -161 -89 -61 4 -95 22 -131 71 -31 41 -29 139 3 185 43 61
135 86 204 57z m-2823 -45 c0 -6 -4 -13 -10 -16 -6 -4 -10 -62 -10 -140 0 -78
4 -136 10 -140 6 -4 10 -63 10 -146 l0 -139 -562 0 -563 0 3 295 3 295 559 0
c343 0 560 -4 560 -9z m3369 -187 c34 -24 12 -38 -32 -19 -20 8 -46 15 -57 15
-12 0 -18 5 -15 10 10 16 78 12 104 -6z m393 -66 c3 -60 4 -63 28 -63 23 0 25
4 28 55 2 30 6 58 10 62 14 14 139 -20 213 -58 128 -64 231 -190 273 -333 9
-30 16 -67 16 -83 0 -27 -2 -28 -49 -28 -95 0 -97 -62 -2 -68 49 -3 51 -4 51
-31 0 -16 -9 -57 -20 -92 -58 -189 -216 -334 -406 -374 -37 -8 -71 -12 -76 -9
-4 3 -8 29 -8 59 0 40 -4 54 -16 59 -29 11 -44 -13 -44 -70 0 -30 -3 -54 -7
-54 -5 0 -38 7 -74 14 -216 46 -392 232 -424 448 l-7 47 52 3 c97 6 94 68 -2
68 l-50 0 7 47 c8 52 40 146 63 181 12 19 23 22 83 22 l68 0 3 77 c3 75 4 78
36 100 52 35 172 76 239 82 8 1 13 -20 15 -61z m-1076 -215 c-32 -17 -109 -14
-129 6 -8 8 11 11 74 11 82 -1 83 -1 55 -17z m404 -968 l0 -195 -316 0 -315 0
6 48 c10 71 57 164 130 258 l66 84 215 0 214 0 0 -195z m-254 -450 c28 -43 6
-56 -85 -53 -64 3 -76 6 -79 21 -7 36 26 57 89 57 51 0 61 -3 75 -25z"/>
<path d="M7092 4504 c-32 -22 -30 -69 4 -91 24 -15 29 -15 53 -2 36 20 41 71
9 93 -28 20 -38 20 -66 0z"/>
<path d="M7002 4147 c-40 -42 -25 -107 28 -126 53 -18 110 21 110 77 0 62 -94
95 -138 49z"/>
<path d="M4213 4157 l-43 -21 0 -93 0 -93 40 -20 c21 -11 44 -20 50 -20 6 0
10 48 10 135 0 74 -3 135 -7 134 -5 0 -27 -10 -50 -22z"/>
<path d="M4100 4130 c-25 -3 -62 -16 -83 -29 -31 -19 -37 -28 -37 -57 0 -28 6
-38 38 -58 23 -16 55 -26 87 -28 l50 -3 3 84 c2 46 -1 87 -5 91 -4 3 -28 4
-53 0z"/>
<path d="M3744 4049 c-13 -21 21 -29 124 -29 95 0 102 1 102 20 0 19 -7 20
-109 20 -70 0 -112 -4 -117 -11z"/>
<path d="M8050 3500 c-11 -11 -20 -29 -20 -40 0 -24 34 -60 56 -60 9 0 65 -43
124 -95 97 -85 162 -127 176 -112 15 15 -41 83 -132 161 -74 63 -104 95 -104
111 0 49 -63 72 -100 35z"/>
<path d="M8829 6773 c0 -5 0 -35 1 -68 2 -100 -42 -138 -176 -151 -139 -14
-211 -76 -229 -197 l-7 -47 31 0 c28 0 31 3 31 30 0 45 34 105 74 129 22 14
63 25 115 31 90 10 146 35 185 80 24 29 26 39 26 116 0 83 0 84 -25 84 -14 0
-25 -3 -26 -7z"/>
<path d="M5792 6668 l3 -103 173 -3 172 -2 0 105 0 105 -175 0 -176 0 3 -102z"/>
<path d="M5806 6541 c-15 -24 27 -31 170 -29 132 3 149 5 152 21 3 16 -10 17
-157 17 -88 0 -162 -4 -165 -9z"/>
<path d="M5868 6470 c46 -38 154 -36 207 4 18 14 8 15 -105 15 -124 0 -125 0
-102 -19z"/>
<path d="M7730 6410 c0 -27 -4 -40 -14 -40 -20 0 -53 -31 -61 -57 l-6 -23 190
0 c178 0 191 1 191 18 0 20 -39 62 -58 62 -6 0 -12 17 -14 38 l-3 37 -112 3
-113 3 0 -41z"/>
<path d="M3790 6265 l0 -155 -431 0 -431 0 -29 -29 -29 -29 0 -352 c0 -368 3
-398 45 -414 9 -3 235 -6 502 -6 l484 0 -3 -27 c-3 -24 1 -28 25 -31 23 -3 27
0 27 23 0 20 7 28 30 37 58 20 60 35 60 378 l0 310 178 0 c144 0 182 3 200 16
22 15 22 19 22 225 l0 209 -325 0 -325 0 0 -155z m520 25 c0 -19 -7 -20 -195
-20 -188 0 -195 1 -195 20 0 19 7 20 195 20 188 0 195 -1 195 -20z m0 -95 c0
-13 -28 -15 -195 -15 -167 0 -195 2 -195 15 0 13 28 15 195 15 167 0 195 -2
195 -15z m0 -95 c0 -19 -7 -20 -148 -20 -98 0 -152 4 -159 11 -7 7 -29 15 -50
19 -22 5 44 8 160 9 191 1 197 0 197 -19z m-492 -117 c9 -7 42 -13 75 -13 42
0 58 -3 55 -12 -6 -17 -155 -23 -174 -7 -17 14 -18 51 -2 67 9 9 14 8 21 -5 5
-10 17 -24 25 -30z m-391 -11 c66 -34 109 -78 143 -144 24 -50 30 -74 30 -128
0 -36 -8 -89 -17 -116 -23 -67 -110 -154 -177 -177 -62 -21 -158 -22 -219 -1
-60 20 -131 84 -165 148 -23 44 -27 63 -27 141 0 81 3 95 30 144 36 65 92 114
159 141 68 27 182 23 243 -8z"/>
<path d="M3216 5915 c-93 -33 -148 -104 -154 -199 -5 -80 10 -127 57 -179 119
-132 337 -88 397 80 64 182 -118 363 -300 298z"/>
<path d="M5090 6180 l0 -220 320 0 320 0 0 220 0 220 -320 0 -320 0 0 -220z
m120 -10 c0 -113 -1 -120 -20 -120 -19 0 -20 7 -20 120 0 113 1 120 20 120 19
0 20 -7 20 -120z"/>
<path d="M8036 6254 c-91 -29 -176 -143 -176 -239 0 -99 85 -211 181 -239 78
-24 800 -24 878 0 96 28 181 140 181 239 0 99 -85 211 -181 239 -76 23 -809
22 -883 0z m152 -166 c3 -35 5 -37 40 -40 34 -3 37 -6 40 -35 3 -32 2 -33 -37
-33 l-41 0 0 -40 c0 -39 -1 -40 -35 -40 -34 0 -35 1 -35 40 l0 40 -41 0 c-39
0 -40 1 -37 33 3 29 6 32 41 35 35 3 37 5 37 36 0 40 7 48 40 44 21 -3 25 -9
28 -40z m675 20 c6 -18 -11 -48 -27 -48 -20 0 -37 25 -30 44 7 19 50 22 57 4z
m-93 -103 c0 -27 -17 -36 -42 -23 -23 11 -23 34 -1 46 24 14 43 4 43 -23z
m175 -5 c0 -18 -6 -26 -23 -28 -24 -4 -38 18 -28 44 3 9 15 14 28 12 17 -2 23
-10 23 -28z m-85 -85 c0 -27 -26 -40 -46 -24 -19 16 -18 36 3 47 24 14 43 4
43 -23z"/>
<path d="M2990 6175 l0 -45 120 0 120 0 0 45 0 45 -120 0 -120 0 0 -45z"/>
<path d="M9243 5996 c-64 -21 -110 -53 -146 -104 l-32 -47 -3 -372 -3 -371
-77 5 c-66 5 -85 2 -130 -17 -62 -27 -122 -90 -142 -150 -13 -40 -13 -40 -34
-21 -37 33 -70 44 -128 44 -159 0 -241 -184 -135 -300 18 -21 19 -23 3 -23
-10 0 -31 -13 -47 -29 -26 -26 -29 -36 -29 -93 l0 -65 -29 5 -28 4 -18 149
c-14 125 -15 160 -5 214 13 71 4 139 -30 210 -10 22 -21 65 -25 95 -4 30 -12
61 -17 68 -7 7 -36 12 -77 12 -36 0 -88 7 -116 16 -66 21 -206 21 -264 0 -25
-9 -74 -16 -116 -16 -46 0 -76 -5 -82 -12 -6 -7 -13 -38 -17 -68 -3 -30 -17
-82 -31 -115 -25 -61 -33 -166 -16 -225 4 -13 -1 -89 -11 -169 -9 -79 -15
-148 -12 -153 3 -4 -9 -8 -25 -8 -24 0 -31 -4 -31 -20 0 -20 4 -20 475 -18
l475 3 0 -123 c0 -123 0 -124 29 -153 l29 -29 356 0 c254 0 363 3 381 12 49
22 55 51 55 248 0 199 -7 228 -57 250 l-28 13 39 38 c32 32 45 39 78 39 35 0
39 2 36 23 -2 13 -11 23 -24 25 -19 3 -21 9 -20 80 1 84 -18 135 -68 181 l-26
24 0 380 c0 371 0 380 22 418 42 76 138 116 234 98 64 -12 110 -43 139 -93
l25 -43 0 -295 0 -296 -34 -6 c-50 -9 -110 -58 -135 -108 -18 -39 -21 -62 -21
-190 0 -203 -11 -192 209 -196 131 -3 178 0 199 11 23 11 30 11 40 1 43 -47
80 87 51 189 -5 21 -16 37 -24 37 -12 0 -15 -17 -15 -84 0 -47 -3 -87 -7 -89
-5 -3 -7 54 -5 126 2 102 0 140 -13 173 -22 57 -79 112 -135 128 l-45 13 -5
309 c-5 304 -5 310 -29 347 -62 100 -208 150 -328 113z m-156 -753 c-1 -93 -3
-17 -3 167 0 184 2 260 3 168 2 -93 2 -243 0 -335z m-1053 -68 c69 -33 135
-94 168 -157 19 -36 23 -58 23 -133 0 -105 -18 -148 -89 -219 -177 -178 -497
-132 -614 89 -37 69 -38 187 -3 257 28 58 91 122 145 150 83 42 109 48 211 45
86 -3 108 -7 159 -32z m1519 -76 c4 -16 3 -18 -9 -8 -16 13 -19 29 -5 29 5 0
11 -9 14 -21z m49 -11 c-8 -8 -9 -4 -5 13 4 13 8 18 11 10 2 -7 -1 -18 -6 -23z
m-582 -74 c22 -9 40 -23 40 -31 0 -8 -6 -12 -12 -9 -83 34 -139 31 -188 -10
-63 -53 -63 -149 0 -209 28 -27 39 -30 112 -34 75 -3 80 -4 57 -17 -31 -17
-101 -18 -142 0 -42 17 -83 66 -98 114 -29 99 57 207 168 211 13 1 41 -6 63
-15z m107 -181 c-2 -16 -4 -5 -4 22 0 28 2 40 4 28 2 -13 2 -35 0 -50z m-352
-153 l39 -40 -73 0 -73 0 26 31 c14 17 26 35 26 40 0 18 16 9 55 -31z"/>
<path d="M7844 5186 c-10 -27 1 -71 19 -74 14 -3 17 4 17 42 0 35 -4 46 -15
46 -9 0 -18 -6 -21 -14z"/>
<path d="M7677 5154 c-9 -9 34 -74 49 -74 19 0 18 16 -3 51 -16 28 -33 36 -46
23z"/>
<path d="M8001 5131 c-24 -34 -27 -51 -7 -51 16 0 57 60 50 72 -9 15 -22 8
-43 -21z"/>
<path d="M7557 5043 c-13 -13 -7 -20 33 -38 29 -13 44 -15 52 -7 7 7 -1 16
-30 31 -46 24 -46 24 -55 14z"/>
<path d="M8113 5033 c-31 -15 -45 -43 -23 -43 21 0 80 35 80 47 0 17 -17 16
-57 -4z"/>
<path d="M7955 4985 c-42 -33 -80 -55 -95 -55 -30 0 -50 -17 -50 -41 0 -10
-18 -32 -40 -49 -42 -33 -50 -54 -25 -64 9 -3 31 8 54 29 22 20 49 35 63 35
29 0 48 17 48 45 0 12 25 42 65 78 59 53 78 78 58 76 -5 0 -39 -25 -78 -54z"/>
<path d="M7510 4885 c0 -11 12 -15 50 -15 38 0 50 4 50 15 0 11 -12 15 -50 15
-38 0 -50 -4 -50 -15z"/>
<path d="M8120 4885 c0 -13 9 -16 48 -13 26 2 47 8 47 13 0 6 -21 11 -47 13
-39 3 -48 0 -48 -13z"/>
<path d="M7583 4763 c-35 -18 -41 -30 -19 -39 17 -6 88 35 80 47 -7 13 -24 10
-61 -8z"/>
<path d="M8080 4767 c0 -12 59 -47 80 -47 23 0 7 28 -25 43 -43 20 -55 21 -55
4z"/>
<path d="M7692 4655 c-19 -31 -20 -36 -7 -41 9 -4 17 -5 19 -3 28 38 44 68 39
73 -14 13 -29 4 -51 -29z"/>
<path d="M7980 4678 c0 -7 11 -26 24 -43 34 -41 53 -23 25 23 -21 32 -49 43
-49 20z"/>
<path d="M7844 4646 c-10 -27 1 -71 19 -74 14 -3 17 4 17 42 0 35 -4 46 -15
46 -9 0 -18 -6 -21 -14z"/>
<path d="M4485 5920 c-224 -74 -338 -337 -236 -545 121 -246 451 -306 651
-119 164 154 169 406 9 566 -29 29 -77 62 -117 81 -88 41 -213 48 -307 17z
m316 -177 c151 -77 182 -267 63 -387 -155 -154 -424 -45 -424 172 0 184 193
299 361 215z"/>
<path d="M4654 5729 c-49 -11 -115 -65 -138 -113 -21 -44 -21 -128 0 -172 67
-142 275 -158 363 -28 59 85 47 187 -31 261 -51 49 -121 68 -194 52z m142
-114 c40 -16 65 -64 57 -108 -7 -38 -57 -77 -98 -77 -40 0 -90 38 -99 75 -10
39 18 93 56 110 42 18 42 18 84 0z"/>
<path d="M7300 5645 c0 -8 6 -15 13 -15 8 0 19 -17 25 -39 29 -95 166 -190
329 -228 107 -25 292 -24 393 1 160 40 277 119 319 216 13 29 28 50 37 50 9 0
14 6 12 13 -4 9 -128 13 -566 15 -495 2 -562 0 -562 -13z"/>
<path d="M7620 5295 l0 -65 35 0 35 0 0 55 c0 50 -2 56 -26 65 -41 16 -44 13
-44 -55z"/>
<path d="M8063 5353 c-21 -4 -23 -10 -23 -64 l0 -59 35 0 35 0 0 65 c0 68 0
67 -47 58z"/>
<path d="M2724 5285 c-3 -8 -3 -19 1 -25 4 -7 -28 -10 -97 -10 l-103 0 -70
-131 c-38 -73 -71 -136 -73 -140 -2 -5 72 -9 165 -9 l169 0 -4 -36 c-3 -24 0
-39 9 -45 11 -6 11 -11 1 -21 -9 -9 -12 -111 -12 -434 l0 -422 -54 -6 c-118
-15 -110 -59 14 -76 82 -11 200 -1 240 20 l24 13 -22 18 c-13 10 -47 21 -77
24 l-55 7 -1 427 c-1 234 -2 450 -3 478 l-1 53 168 0 c92 0 167 3 167 8 0 4
-30 66 -68 137 l-67 130 -105 5 c-58 3 -104 8 -102 13 1 4 2 14 2 22 0 19 -39
20 -46 0z"/>
<path d="M3855 5080 c-15 -60 -27 -113 -26 -117 1 -5 15 -8 33 -8 l31 0 22
113 c12 61 19 114 17 117 -3 3 -15 5 -28 5 -19 0 -24 -11 -49 -110z"/>
<path d="M4361 4993 c-35 -87 -65 -163 -68 -169 -3 -7 43 -27 118 -53 68 -22
124 -40 125 -38 1 1 11 56 23 122 l20 120 -5 -117 c-3 -65 -2 -118 2 -118 12
0 378 71 381 74 1 1 -31 76 -71 167 -50 112 -78 163 -87 160 -144 -42 -258
-41 -360 3 -12 5 -28 -24 -78 -151z"/>
<path d="M9301 4923 c-28 -100 3 -222 48 -193 10 6 10 12 2 28 -6 11 -11 61
-11 111 0 73 -3 91 -15 91 -8 0 -19 -16 -24 -37z"/>
<path d="M3063 4926 c-63 -20 -110 -53 -142 -100 -75 -109 -64 -234 29 -326
62 -63 117 -80 261 -80 l108 0 19 53 c11 28 23 62 26 75 13 40 54 52 178 52
147 0 156 -5 188 -100 l26 -75 113 -3 c151 -4 206 12 271 77 72 72 95 159 66
254 -34 114 -130 178 -277 185 l-88 4 -53 -53 c-52 -52 -78 -105 -78 -158 0
-21 -2 -21 -167 -19 l-167 3 -8 42 c-3 23 -13 54 -21 70 -17 32 -71 85 -104
102 -29 15 -128 13 -180 -3z m157 -141 c48 -25 70 -62 70 -117 0 -43 -5 -55
-33 -83 -62 -62 -158 -55 -204 14 -74 109 49 247 167 186z m771 0 c66 -35 88
-123 46 -186 -46 -69 -142 -76 -204 -14 -28 28 -33 40 -33 82 0 55 17 85 64
114 38 23 87 24 127 4z"/>
<path d="M3290 4934 c0 -3 16 -25 36 -47 20 -25 42 -66 52 -99 l17 -58 148 0
c136 0 147 1 147 18 0 29 59 140 86 161 13 10 24 22 24 25 0 3 -115 6 -255 6
-140 0 -255 -3 -255 -6z"/>
<path d="M9353 4512 l-123 -67 0 -75 0 -75 125 -63 c69 -34 127 -62 130 -62 3
0 5 92 5 205 0 113 -3 205 -7 205 -5 0 -63 -31 -130 -68z"/>
<path d="M3412 4553 c-17 -15 -52 -99 -52 -125 0 -4 81 -8 181 -8 167 0 180 1
175 18 -2 9 -10 36 -17 60 -19 64 -36 72 -160 72 -87 0 -110 -3 -127 -17z"/>
<path d="M8917 3973 c-4 -3 -7 -201 -7 -439 l0 -433 -67 6 c-166 13 -302 -105
-303 -261 0 -82 17 -131 67 -186 74 -83 185 -113 298 -81 64 19 155 106 173
167 20 70 15 154 -13 210 -14 27 -25 50 -25 52 0 1 186 2 414 2 l415 0 3 -27
c4 -36 41 -44 58 -13 6 11 8 25 5 30 -3 5 9 10 27 12 l33 3 0 480 0 480 -536
3 c-294 1 -539 -1 -542 -5z m179 -84 c9 -15 -38 13 -53 31 -10 13 -12 13 -18
-3 -4 -10 -5 -42 -3 -73 3 -38 1 -51 -6 -44 -5 5 -9 31 -7 56 2 35 -1 45 -11
42 -8 -3 -13 -19 -12 -43 1 -24 -2 -32 -7 -24 -17 27 -9 54 23 81 l33 26 27
-19 c15 -11 30 -25 34 -30z m-28 -34 c-4 -38 5 -45 21 -17 6 9 11 12 11 5 0
-6 -14 -21 -30 -33 l-30 -21 10 26 c5 14 10 37 10 51 0 13 3 24 6 24 3 0 4
-16 2 -35z m539 11 c72 -23 170 -91 215 -151 43 -56 78 -156 78 -220 0 -24 -9
-71 -20 -106 -92 -295 -518 -385 -750 -159 -116 113 -148 274 -83 413 54 115
161 199 296 233 64 17 193 11 264 -10z"/>
<path d="M9330 3841 c-44 -14 -90 -41 -90 -54 0 -7 23 -35 51 -62 56 -55 112
-131 107 -144 -2 -5 -50 22 -108 61 -131 87 -149 87 -193 9 -27 -47 -32 -68
-35 -143 -5 -109 -1 -112 112 -75 76 25 187 47 176 34 -3 -3 -53 -37 -112 -76
-126 -83 -134 -100 -71 -157 62 -57 237 -107 258 -74 4 7 7 51 6 99 -1 85 11
161 22 131 3 -8 19 -61 36 -117 35 -113 49 -129 104 -117 83 17 170 83 202
151 21 44 11 57 -58 73 -68 16 -177 60 -177 71 0 4 58 6 130 2 155 -7 160 -5
160 75 0 74 -17 125 -57 172 -61 71 -87 73 -125 12 -29 -48 -117 -142 -133
-142 -7 0 5 42 32 110 51 127 49 141 -21 159 -50 12 -177 13 -216 2z m160
-319 c26 -21 21 -57 -11 -67 -52 -17 -89 34 -49 67 12 10 26 18 30 18 4 0 18
-8 30 -18z"/>
<path d="M9427 3508 c-7 -21 12 -48 33 -48 21 0 40 27 33 48 -3 6 -17 12 -33
12 -16 0 -30 -6 -33 -12z"/>
<path d="M2895 3740 c-15 -17 -16 -22 -4 -37 7 -10 0 -6 -17 10 -17 15 -36 27
-43 27 -7 0 -79 -20 -159 -45 -137 -42 -192 -68 -198 -91 -2 -8 107 -108 292
-268 l45 -39 29 28 c16 16 37 51 47 79 9 28 19 44 20 36 2 -9 109 -94 238
-190 129 -96 234 -180 235 -187 0 -6 29 -36 63 -66 l64 -53 -33 -75 -33 -74
-1 -222 c0 -266 -7 -253 131 -253 83 0 89 1 108 26 16 21 21 41 21 90 l0 64
330 0 330 0 0 -70 c0 -98 13 -110 123 -110 133 0 127 -12 127 256 l0 224 -76
190 c-42 104 -88 207 -104 228 -52 73 -71 77 -368 80 -284 4 -345 -3 -397 -43
-18 -13 -45 -50 -61 -82 -16 -32 -30 -60 -31 -62 -1 -2 -16 8 -33 23 -17 14
-36 26 -41 26 -6 0 -33 -21 -62 -47 -29 -27 -44 -38 -34 -27 18 22 17 22 -110
115 -70 51 -181 133 -246 182 -67 50 -122 85 -129 81 -8 -5 -9 -1 -4 12 5 10
11 27 13 37 5 17 7 16 17 -3 6 -12 119 -104 251 -205 238 -182 240 -183 260
-164 13 13 16 22 9 27 -6 4 -122 90 -258 192 -136 102 -252 184 -257 183 -12
-4 -12 -2 7 42 15 38 15 38 -18 74 -18 19 -23 27 -11 17 19 -15 25 -16 38 -6
23 19 19 32 -19 62 -33 27 -34 27 -51 8z m1445 -555 c17 -15 130 -234 130
-251 0 -2 -198 -4 -440 -4 -242 0 -440 2 -440 4 0 1 24 54 54 117 51 109 73
139 106 152 8 3 139 5 291 4 261 -2 278 -3 299 -22z m-596 -477 c8 -13 8 -23
0 -35 -9 -14 -28 -19 -94 -21 -85 -3 -110 6 -110 37 0 34 22 42 109 39 67 -2
86 -7 95 -20z m760 0 c8 -13 8 -23 0 -35 -9 -14 -28 -19 -94 -21 -85 -3 -110
6 -110 37 0 34 22 42 109 39 67 -2 86 -7 95 -20z m-305 -7 c8 -5 11 -16 8 -25
-6 -14 -30 -16 -176 -16 -171 0 -196 5 -171 35 10 12 44 15 169 15 86 0 162
-4 170 -9z"/>
<path d="M4980 3185 l0 -145 185 0 185 0 0 145 0 145 -185 0 -185 0 0 -145z"/>
<path d="M3115 2793 c-148 -135 -271 -252 -273 -259 -2 -9 -27 -14 -75 -16
l-72 -3 0 -30 0 -30 223 -3 222 -2 0 34 0 35 -71 3 -70 3 240 215 c225 201
239 216 224 232 -13 15 -19 16 -32 5 -53 -41 -482 -431 -489 -443 -5 -9 -17
-14 -27 -13 -13 3 56 71 244 243 252 229 261 239 245 257 -9 11 -18 19 -18 19
-1 -1 -122 -112 -271 -247z"/>
<path d="M4917 3013 c-20 -16 -36 -31 -37 -35 0 -5 126 -8 280 -8 170 0 280 4
280 9 0 17 -73 67 -78 53 -5 -15 -392 -18 -392 -2 0 16 -15 12 -53 -17z"/>
<path d="M4880 2660 l0 -300 285 0 285 0 0 300 0 300 -285 0 -285 0 0 -300z
m520 0 l0 -260 -235 0 -235 0 0 260 0 260 235 0 235 0 0 -260z"/>
<path d="M5154 2852 c-16 -10 -25 -212 -10 -218 6 -2 43 0 81 4 52 5 70 11 70
22 0 11 -15 16 -55 20 l-55 5 -3 80 c-3 82 -9 100 -28 87z"/>
<path d="M9094 2688 c-3 -12 -26 -42 -50 -68 -39 -42 -63 -56 -142 -87 -22 -8
-6 -23 187 -181 154 -126 217 -172 237 -172 35 0 94 59 94 94 0 18 -48 91
-151 231 -83 113 -154 205 -159 205 -5 0 -12 -10 -16 -22z m56 -101 c0 -2 -10
-12 -22 -23 l-23 -19 19 23 c18 21 26 27 26 19z"/>
<path d="M8013 2463 c-7 -2 -13 -18 -13 -34 l0 -29 477 2 c463 3 478 4 481 22
9 45 -6 46 -482 45 -248 0 -457 -3 -463 -6z"/>
<path d="M8000 2294 l0 -96 185 4 c159 3 180 1 148 -10 -21 -6 -60 -29 -88
-50 -190 -143 -170 -402 40 -523 27 -16 45 -29 39 -29 -17 0 -97 54 -133 91
-88 89 -112 231 -58 341 26 52 79 110 137 150 24 16 19 17 -123 17 l-147 1 2
-457 3 -458 469 -3 c369 -2 471 0 478 10 4 7 8 214 8 461 l0 447 -152 0 -151
0 46 -31 c165 -109 197 -319 72 -467 -27 -32 -106 -92 -122 -92 -4 0 16 16 45
35 59 40 103 95 128 161 23 60 15 173 -15 233 -29 56 -97 122 -152 146 l-44
20 170 5 170 5 3 93 3 92 -481 0 -480 0 0 -96z m910 16 c0 -28 -3 -30 -35 -30
-32 0 -35 2 -35 30 0 28 3 30 35 30 32 0 35 -2 35 -30z m-407 -87 c-13 -2 -35
-2 -50 0 -16 2 -5 4 22 4 28 0 40 -2 28 -4z m-90 -10 c-7 -2 -19 -2 -25 0 -7
3 -2 5 12 5 14 0 19 -2 13 -5z m160 0 c-7 -2 -21 -2 -30 0 -10 3 -4 5 12 5 17
0 24 -2 18 -5z m20 -125 c96 -41 153 -150 127 -243 -41 -146 -231 -217 -369
-139 -132 74 -160 219 -63 326 78 86 186 106 305 56z m37 -498 c-8 -5 -19 -10
-25 -10 -5 0 -3 5 5 10 8 5 20 10 25 10 6 0 3 -5 -5 -10z m-233 -16 c-3 -3
-12 -4 -19 -1 -8 3 -5 6 6 6 11 1 17 -2 13 -5z m190 0 c-3 -3 -12 -4 -19 -1
-8 3 -5 6 6 6 11 1 17 -2 13 -5z m-74 -11 c-18 -2 -48 -2 -65 0 -18 2 -4 4 32
4 36 0 50 -2 33 -4z"/>
<path d="M4910 2310 c36 -30 60 -38 60 -20 0 15 373 13 388 -2 8 -8 20 -4 47
16 19 15 35 29 35 32 0 2 -127 4 -282 4 l-283 -1 35 -29z"/>
<path d="M9591 2316 c-8 -10 -9 -26 -2 -57 22 -100 -48 -140 -128 -74 -26 23
-33 24 -50 13 -26 -16 -26 -20 2 -45 56 -52 140 -69 185 -37 12 8 29 29 38 46
33 64 -7 200 -45 154z"/>
<path d="M4980 2135 l0 -145 45 0 c45 0 45 0 45 35 0 28 4 35 20 35 16 0 20
-7 20 -35 l0 -35 115 0 115 0 0 145 0 145 -180 0 -180 0 0 -145z"/>
<path d="M4025 2169 c-101 -10 -217 -40 -277 -70 -54 -27 -124 -93 -154 -145
-23 -40 -53 -153 -54 -202 0 -23 0 -23 143 -20 l142 3 3 25 c12 97 54 158 130
187 40 15 77 18 252 17 215 -1 267 -8 314 -45 34 -27 62 -82 71 -142 l7 -47
140 0 141 0 -5 68 c-14 187 -137 307 -362 353 -109 22 -362 32 -491 18z"/>
<path d="M3926 1815 c-3 -9 -6 -31 -6 -49 0 -22 -11 -45 -33 -72 -47 -56 -146
-187 -200 -267 l-47 -68 0 -133 c0 -89 4 -136 12 -144 17 -17 1079 -17 1096 0
8 8 12 55 12 146 l0 134 -56 82 c-32 44 -94 129 -140 187 -71 91 -83 112 -86
150 l-3 44 -65 0 -65 0 -3 -38 -3 -38 -137 3 -137 3 -5 35 -5 35 -61 3 c-49 2
-63 0 -68 -13z m148 -191 c8 -21 -11 -44 -35 -44 -19 0 -35 33 -24 50 10 16
52 12 59 -6z m151 -14 c0 -18 -6 -26 -23 -28 -13 -2 -25 3 -28 12 -10 26 4 48
28 44 17 -2 23 -10 23 -28z m159 15 c8 -22 -4 -45 -24 -45 -23 0 -42 24 -34
44 8 20 50 21 58 1z m-310 -131 c8 -21 -11 -44 -35 -44 -19 0 -35 33 -24 50
10 16 52 12 59 -6z m151 -14 c0 -18 -6 -26 -23 -28 -13 -2 -25 3 -28 12 -10
26 4 48 28 44 17 -2 23 -10 23 -28z m159 15 c8 -22 -4 -45 -24 -45 -23 0 -42
24 -34 44 8 20 50 21 58 1z m-310 -131 c8 -21 -11 -44 -35 -44 -19 0 -35 33
-24 50 10 16 52 12 59 -6z m151 -14 c0 -18 -6 -26 -23 -28 -13 -2 -25 3 -28
12 -10 26 4 48 28 44 17 -2 23 -10 23 -28z m160 20 c11 -17 -5 -50 -24 -50
-24 0 -43 23 -35 44 7 18 49 22 59 6z"/>
<path d="M3547 1703 c-13 -12 -7 -40 14 -67 20 -25 25 -26 118 -26 62 0 103 5
114 13 18 13 39 72 29 81 -8 8 -267 7 -275 -1z"/>
<path d="M4600 1686 c0 -13 9 -34 19 -47 17 -21 29 -24 106 -28 105 -4 142 9
154 53 4 17 6 34 4 39 -2 4 -67 7 -144 7 l-139 0 0 -24z"/>
<path d="M6963 1693 c-54 -11 -53 -2 -53 -608 0 -491 2 -563 16 -583 l15 -22
493 0 c465 0 494 1 509 18 15 17 17 72 17 589 0 567 0 570 -21 589 -20 18 -44
19 -488 20 -256 1 -476 0 -488 -3z m865 -585 l-3 -453 -387 0 c-214 0 -388 3
-388 8 0 4 0 207 0 452 l0 445 390 0 390 0 -2 -452z m-363 -543 c0 -25 -4 -30
-24 -30 -32 0 -49 28 -31 50 7 9 23 15 34 13 16 -2 21 -10 21 -33z"/>
<path d="M5253 1611 c-33 -15 -73 -61 -73 -83 0 -2 24 -1 54 0 37 3 78 -4 135
-22 109 -35 157 -35 173 0 16 35 3 53 -65 88 -76 38 -165 45 -224 17z"/>
<path d="M4845 1156 c-30 -13 -85 -69 -85 -87 0 -4 12 -4 28 2 42 16 107 3
284 -58 234 -81 314 -79 368 10 28 45 27 61 -2 46 -13 -7 -47 -12 -78 -11 -55
0 -88 10 -275 76 -108 39 -186 46 -240 22z"/>
<path d="M4781 1044 c-25 -18 -26 -42 -5 -125 9 -34 13 -74 10 -90 -6 -34 15
-57 33 -35 7 8 28 20 48 27 l35 11 -7 57 c-6 53 -4 60 20 89 15 18 25 32 22
32 -3 0 -34 11 -69 24 -59 23 -67 23 -87 10z"/>
<path d="M5131 875 c-18 -50 -43 -62 -147 -70 -65 -5 -102 -13 -125 -27 l-32
-20 49 -49 c50 -50 50 -50 80 -34 17 9 55 15 93 15 87 0 144 28 183 89 38 60
34 90 -12 106 -79 27 -75 28 -89 -10z"/>
<path d="M4699 797 c-55 -56 -89 -98 -89 -109 0 -6 14 -27 31 -44 l31 -32 -20
-29 -21 -29 36 -28 35 -28 21 21 21 21 37 -36 36 -35 29 29 c33 33 67 73 77
88 3 6 -43 59 -102 118 -93 93 -110 106 -122 93z"/>
</g>
</svg>
